<?xml version="1.0"?>
<svg xmlns="http://www.w3.org/2000/svg" width="500" height="420" version="1.0" id="ezcGraph"><defs/><g id="ezcGraphChart" color-rendering="optimizeQuality" shape-rendering="geometricPrecision" text-rendering="optimizeLegibility"><path d=" M 0.0000,420.0000 L 0.0000,0.0000 L 500.0000,0.0000 L 500.0000,420.0000 L 0.0000,420.0000 z " style="fill: #eeeeec; fill-opacity: 1.00; stroke: none;" id="ezcGraphPolygon_1"/><path d=" M 0.0000,42.0000 L 0.0000,0.0000 L 500.0000,0.0000 L 500.0000,42.0000 L 0.0000,42.0000 z " style="fill: #000000; fill-opacity: 0.00; stroke: none;" id="ezcGraphPolygon_2"/><path d="M 242.87,241.26 L 355.37,241.26 A 112.50,112.50 0 1,1 203.65,135.82 z" style="fill: #3465a4; fill-opacity: 1.00; stroke: none; cursor: pointer;" id="ezcGraphCircleSector_4" onclick="top.location = 'https://linux-hardware.org/?view=computers&amp;f=net_ethernet_model&amp;v=Intel+82540EM+Gigabit+Ethernet+Controller&amp;p=0'"/><path d="M 242.52,241.76 L 354.87,241.76 A 112.00,112.00 0 1,1 203.36,136.46 z" style="fill: none; stroke: #1a3352; stroke-width: 1; stroke-opacity: 1.00; stroke-linecap: round; stroke-linejoin: round;" id="ezcGraphCircleSector_5"/><path d="M 250.00,231.00 L 210.79,125.56 A 112.50,112.50 0 0,1 318.02,141.39 z" style="fill: #4e9a06; fill-opacity: 1.00; stroke: none; cursor: pointer;" id="ezcGraphCircleSector_6" onclick="top.location = 'https://linux-hardware.org/?view=computers&amp;f=net_ethernet_model&amp;v=Intel+82545EM+Gigabit+Ethernet+Controller+%28Copper%29&amp;p=0'"/><path d="M 250.15,229.97 L 211.43,125.85 A 112.00,112.00 0 0,1 317.32,141.49 z" style="fill: none; stroke: #274d03; stroke-width: 1; stroke-opacity: 1.00; stroke-linecap: round; stroke-linejoin: round;" id="ezcGraphCircleSector_7"/><path d="M 250.00,231.00 L 318.02,141.39 A 112.50,112.50 0 0,1 343.70,168.74 z" style="fill: #cc0000; fill-opacity: 1.00; stroke: none; cursor: pointer;" id="ezcGraphCircleSector_8" onclick="top.location = 'https://linux-hardware.org/?view=computers&amp;f=net_ethernet_model&amp;v=VMware+VMXNET3+Ethernet+Controller&amp;p=0'"/><path d="M 252.19,228.95 L 318.11,142.09 A 112.00,112.00 0 0,1 343.01,168.60 z" style="fill: none; stroke: #660000; stroke-width: 1; stroke-opacity: 1.00; stroke-linecap: round; stroke-linejoin: round;" id="ezcGraphCircleSector_9"/><path d="M 250.00,231.00 L 343.70,168.74 A 112.50,112.50 0 0,1 352.77,185.24 z" style="fill: #edd400; fill-opacity: 1.00; stroke: none; cursor: pointer;" id="ezcGraphCircleSector_10" onclick="top.location = 'https://linux-hardware.org/?view=computers&amp;f=net_ethernet_model&amp;v=Digital+Equipment+DECchip+21140+%5BFasterNet%5D&amp;p=0'"/><path d="M 255.24,228.12 L 343.56,169.44 A 112.00,112.00 0 0,1 352.11,184.99 z" style="fill: none; stroke: #776a00; stroke-width: 1; stroke-opacity: 1.00; stroke-linecap: round; stroke-linejoin: round;" id="ezcGraphCircleSector_11"/><path d="M 250.00,231.00 L 352.77,185.24 A 112.50,112.50 0 0,1 356.24,194.00 z" style="fill: #75505b; fill-opacity: 1.00; stroke: none; cursor: pointer;" id="ezcGraphCircleSector_12" onclick="top.location = 'https://linux-hardware.org/?view=computers&amp;f=net_ethernet_model&amp;v=Realtek+Semiconductor+RTL-8100%2F8101L%2F8139+PCI+Fast+Ethernet+Adapter&amp;p=0'"/><path d="M 261.10,226.60 L 352.52,185.90 A 112.00,112.00 0 0,1 355.61,193.69 z" style="fill: none; stroke: #3b282e; stroke-width: 1; stroke-opacity: 1.00; stroke-linecap: round; stroke-linejoin: round;" id="ezcGraphCircleSector_13"/><path d="M 250.00,231.00 L 356.24,194.00 A 112.50,112.50 0 0,1 362.50,231.00 z" style="fill: #f57900; fill-opacity: 1.00; stroke: none;" id="ezcGraphCircleSector_14"/><path d="M 252.96,230.50 L 355.93,194.64 A 112.00,112.00 0 0,1 362.00,230.50 z" style="fill: none; stroke: #7b3d00; stroke-width: 1; stroke-opacity: 1.00; stroke-linecap: round; stroke-linejoin: round;" id="ezcGraphCircleSector_15"/><path d=" M 195.3066,309.6935 L 188.4932,343.0000" style="fill: none; stroke: #000000; stroke-width: 1; stroke-opacity: 1.00; stroke-linecap: round; stroke-linejoin: round;" id="ezcGraphLine_16"/><ellipse cx="195.3066" cy="309.6935" rx="3.0000" ry="3.0000" style="fill: #000000; fill-opacity: 1.00; stroke: none;" id="ezcGraphCircle_17"/><ellipse cx="188.4932" cy="343.0000" rx="3.0000" ry="3.0000" style="fill: #000000; fill-opacity: 1.00; stroke: none;" id="ezcGraphCircle_18"/><path d=" M 262.1736,148.5606 L 271.7797,107.0000" style="fill: none; stroke: #000000; stroke-width: 1; stroke-opacity: 1.00; stroke-linecap: round; stroke-linejoin: round;" id="ezcGraphLine_20"/><ellipse cx="262.1736" cy="148.5606" rx="3.0000" ry="3.0000" style="fill: #000000; fill-opacity: 1.00; stroke: none;" id="ezcGraphCircle_21"/><ellipse cx="271.7797" cy="107.0000" rx="3.0000" ry="3.0000" style="fill: #000000; fill-opacity: 1.00; stroke: none;" id="ezcGraphCircle_22"/><path d=" M 310.7474,173.9544 L 346.7138,145.0000" style="fill: none; stroke: #000000; stroke-width: 1; stroke-opacity: 1.00; stroke-linecap: round; stroke-linejoin: round;" id="ezcGraphLine_24"/><ellipse cx="310.7474" cy="173.9544" rx="3.0000" ry="3.0000" style="fill: #000000; fill-opacity: 1.00; stroke: none;" id="ezcGraphCircle_25"/><ellipse cx="346.7138" cy="145.0000" rx="3.0000" ry="3.0000" style="fill: #000000; fill-opacity: 1.00; stroke: none;" id="ezcGraphCircle_26"/><path d=" M 323.0256,190.8539 L 370.1227,180.0000" style="fill: none; stroke: #000000; stroke-width: 1; stroke-opacity: 1.00; stroke-linecap: round; stroke-linejoin: round;" id="ezcGraphLine_28"/><ellipse cx="323.0256" cy="190.8539" rx="3.0000" ry="3.0000" style="fill: #000000; fill-opacity: 1.00; stroke: none;" id="ezcGraphCircle_29"/><ellipse cx="370.1227" cy="180.0000" rx="3.0000" ry="3.0000" style="fill: #000000; fill-opacity: 1.00; stroke: none;" id="ezcGraphCircle_30"/><path d=" M 327.4814,200.3230 L 379.9718,215.0000" style="fill: none; stroke: #000000; stroke-width: 1; stroke-opacity: 1.00; stroke-linecap: round; stroke-linejoin: round;" id="ezcGraphLine_32"/><ellipse cx="327.4814" cy="200.3230" rx="3.0000" ry="3.0000" style="fill: #000000; fill-opacity: 1.00; stroke: none;" id="ezcGraphCircle_33"/><ellipse cx="379.9718" cy="215.0000" rx="3.0000" ry="3.0000" style="fill: #000000; fill-opacity: 1.00; stroke: none;" id="ezcGraphCircle_34"/><path d=" M 332.1663,217.1026 L 379.5476,250.0000" style="fill: none; stroke: #000000; stroke-width: 1; stroke-opacity: 1.00; stroke-linecap: round; stroke-linejoin: round;" id="ezcGraphLine_36"/><ellipse cx="332.1663" cy="217.1026" rx="3.0000" ry="3.0000" style="fill: #000000; fill-opacity: 1.00; stroke: none;" id="ezcGraphCircle_37"/><ellipse cx="379.5476" cy="250.0000" rx="3.0000" ry="3.0000" style="fill: #000000; fill-opacity: 1.00; stroke: none;" id="ezcGraphCircle_38"/><g id="ezcGraphTextBox_3"><path d=" M 101.1000,42.0000 L 101.1000,0.5000 L 399.4000,0.5000 L 399.4000,42.0000 L 101.1000,42.0000 z " style="fill: #ffffff; fill-opacity: 0.00; stroke: none;" id="ezcGraphPolygon_40"/><text id="ezcGraphTextBox_3_text" x="101.6000" text-length="296.8000px" y="35.0000" style="font-size: 40px; font-family: 'Arial'; fill: #2e3436; fill-opacity: 1.00; stroke: none;">Ethernet Model</text></g><g id="ezcGraphTextBox_19" style=" cursor: pointer;" onclick="top.location = 'https://linux-hardware.org/?view=computers&amp;f=net_ethernet_model&amp;v=Intel+82540EM+Gigabit+Ethernet+Controller&amp;p=0'"><path d=" M 71.7532,357.0500 L 71.7532,329.4500 L 183.4932,329.4500 L 183.4932,357.0500 L 71.7532,357.0500 z " style="fill: #ffffff; fill-opacity: 0.00; stroke: none;" id="ezcGraphPolygon_41"/><text id="ezcGraphTextBox_19_text" x="72.2532" text-length="110.2400px" y="341.0000" style="font-size: 13px; font-family: 'Arial'; fill: #2e3436; fill-opacity: 1.00; stroke: none;">82540EM Gigab...</text><text id="ezcGraphTextBox_19_text" x="134.2632" text-length="48.2300px" y="355.3000" style="font-size: 13px; font-family: 'Arial'; fill: #2e3436; fill-opacity: 1.00; stroke: none;">(69.3%)</text></g><g id="ezcGraphTextBox_23" style=" cursor: pointer;" onclick="top.location = 'https://linux-hardware.org/?view=computers&amp;f=net_ethernet_model&amp;v=Intel+82545EM+Gigabit+Ethernet+Controller+%28Copper%29&amp;p=0'"><path d=" M 277.2797,114.5000 L 277.2797,100.0000 L 444.1397,100.0000 L 444.1397,114.5000 L 277.2797,114.5000 z " style="fill: #ffffff; fill-opacity: 0.00; stroke: none;" id="ezcGraphPolygon_42"/><text id="ezcGraphTextBox_23_text" x="277.7797" text-length="165.3600px" y="111.5500" style="font-size: 13px; font-family: 'Arial'; fill: #2e3436; fill-opacity: 1.00; stroke: none;">82545EM Gigab... (16.0%)</text></g><g id="ezcGraphTextBox_27" style=" cursor: pointer;" onclick="top.location = 'https://linux-hardware.org/?view=computers&amp;f=net_ethernet_model&amp;v=VMware+VMXNET3+Ethernet+Controller&amp;p=0'"><path d=" M 352.2138,159.0500 L 352.2138,131.4500 L 463.9538,131.4500 L 463.9538,159.0500 L 352.2138,159.0500 z " style="fill: #ffffff; fill-opacity: 0.00; stroke: none;" id="ezcGraphPolygon_43"/><text id="ezcGraphTextBox_27_text" x="352.7138" text-length="110.2400px" y="143.0000" style="font-size: 13px; font-family: 'Arial'; fill: #2e3436; fill-opacity: 1.00; stroke: none;">VMXNET3 Ether...</text><text id="ezcGraphTextBox_27_text" x="352.7138" text-length="41.3400px" y="157.3000" style="font-size: 13px; font-family: 'Arial'; fill: #2e3436; fill-opacity: 1.00; stroke: none;">(5.3%)</text></g><g id="ezcGraphTextBox_31" style=" cursor: pointer;" onclick="top.location = 'https://linux-hardware.org/?view=computers&amp;f=net_ethernet_model&amp;v=Digital+Equipment+DECchip+21140+%5BFasterNet%5D&amp;p=0'"><path d=" M 375.6227,194.0500 L 375.6227,166.4500 L 480.4727,166.4500 L 480.4727,194.0500 L 375.6227,194.0500 z " style="fill: #ffffff; fill-opacity: 0.00; stroke: none;" id="ezcGraphPolygon_44"/><text id="ezcGraphTextBox_31_text" x="376.1227" text-length="48.2300px" y="178.0000" style="font-size: 13px; font-family: 'Arial'; fill: #2e3436; fill-opacity: 1.00; stroke: none;">DECchip</text><text id="ezcGraphTextBox_31_text" x="376.1227" text-length="103.3500px" y="192.3000" style="font-size: 13px; font-family: 'Arial'; fill: #2e3436; fill-opacity: 1.00; stroke: none;">21140... (2.7%)</text></g><g id="ezcGraphTextBox_35" style=" cursor: pointer;" onclick="top.location = 'https://linux-hardware.org/?view=computers&amp;f=net_ethernet_model&amp;v=Realtek+Semiconductor+RTL-8100%2F8101L%2F8139+PCI+Fast+Ethernet+Adapter&amp;p=0'"><path d=" M 385.4718,229.0500 L 385.4718,201.4500 L 497.2118,201.4500 L 497.2118,229.0500 L 385.4718,229.0500 z " style="fill: #ffffff; fill-opacity: 0.00; stroke: none;" id="ezcGraphPolygon_45"/><text id="ezcGraphTextBox_35_text" x="385.9718" text-length="110.2400px" y="213.0000" style="font-size: 13px; font-family: 'Arial'; fill: #2e3436; fill-opacity: 1.00; stroke: none;">RTL-8100/8101...</text><text id="ezcGraphTextBox_35_text" x="385.9718" text-length="41.3400px" y="227.3000" style="font-size: 13px; font-family: 'Arial'; fill: #2e3436; fill-opacity: 1.00; stroke: none;">(1.3%)</text></g><g id="ezcGraphTextBox_39"><path d=" M 385.0476,257.5000 L 385.0476,243.0000 L 476.1176,243.0000 L 476.1176,257.5000 L 385.0476,257.5000 z " style="fill: #ffffff; fill-opacity: 0.00; stroke: none;" id="ezcGraphPolygon_46"/><text id="ezcGraphTextBox_39_text" x="385.5476" text-length="89.5700px" y="254.5500" style="font-size: 13px; font-family: 'Arial'; fill: #2e3436; fill-opacity: 1.00; stroke: none;">Others (5.3%)</text></g></g></svg>
