<?xml version="1.0"?>
<svg xmlns="http://www.w3.org/2000/svg" width="500" height="420" version="1.0" id="ezcGraph"><defs/><g id="ezcGraphChart" color-rendering="optimizeQuality" shape-rendering="geometricPrecision" text-rendering="optimizeLegibility"><path d=" M 0.0000,420.0000 L 0.0000,0.0000 L 500.0000,0.0000 L 500.0000,420.0000 L 0.0000,420.0000 z " style="fill: #eeeeec; fill-opacity: 1.00; stroke: none;" id="ezcGraphPolygon_1"/><path d=" M 0.0000,42.0000 L 0.0000,0.0000 L 500.0000,0.0000 L 500.0000,42.0000 L 0.0000,42.0000 z " style="fill: #000000; fill-opacity: 0.00; stroke: none;" id="ezcGraphPolygon_2"/><path d="M 241.04,239.72 L 353.54,239.72 A 112.50,112.50 0 1,1 244.04,127.26 z" style="fill: #3465a4; fill-opacity: 1.00; stroke: none; cursor: pointer;" id="ezcGraphCircleSector_4" onclick="top.location = 'https://linux-hardware.org/?view=computers&amp;f=snd_model&amp;v=Intel+82801AA+AC%2797+Audio+Controller&amp;p=0'"/><path d="M 240.53,240.22 L 353.04,240.22 A 112.00,112.00 0 1,1 243.53,127.75 z" style="fill: none; stroke: #1a3352; stroke-width: 1; stroke-opacity: 1.00; stroke-linecap: round; stroke-linejoin: round;" id="ezcGraphCircleSector_5"/><path d="M 250.00,231.00 L 252.99,118.54 A 112.50,112.50 0 0,1 309.67,135.63 z" style="fill: #4e9a06; fill-opacity: 1.00; stroke: none; cursor: pointer;" id="ezcGraphCircleSector_6" onclick="top.location = 'https://linux-hardware.org/?view=computers&amp;f=snd_model&amp;v=Ensoniq+ES1371%2FES1373+%2F+Creative+Labs+CT2518&amp;p=0'"/><path d="M 250.55,229.18 L 253.48,119.05 A 112.00,112.00 0 0,1 308.98,135.79 z" style="fill: none; stroke: #274d03; stroke-width: 1; stroke-opacity: 1.00; stroke-linecap: round; stroke-linejoin: round;" id="ezcGraphCircleSector_7"/><path d="M 250.00,231.00 L 309.67,135.63 A 112.50,112.50 0 0,1 343.75,168.81 z" style="fill: #cc0000; fill-opacity: 1.00; stroke: none; cursor: pointer;" id="ezcGraphCircleSector_8" onclick="top.location = 'https://linux-hardware.org/?view=computers&amp;f=snd_model&amp;v=Intel+82801I+%28ICH9+Family%29+HD+Audio+Controller&amp;p=0'"/><path d="M 251.65,229.31 L 309.83,136.32 A 112.00,112.00 0 0,1 343.05,168.67 z" style="fill: none; stroke: #660000; stroke-width: 1; stroke-opacity: 1.00; stroke-linecap: round; stroke-linejoin: round;" id="ezcGraphCircleSector_9"/><path d="M 250.00,231.00 L 343.75,168.81 A 112.50,112.50 0 0,1 356.81,195.67 z" style="fill: #edd400; fill-opacity: 1.00; stroke: none; cursor: pointer;" id="ezcGraphCircleSector_10" onclick="top.location = 'https://linux-hardware.org/?view=computers&amp;f=snd_model&amp;v=Intel+82801FB%2FFBM%2FFR%2FFW%2FFRW+%28ICH6+Family%29+High+Definition+Audio+Controller&amp;p=0'"/><path d="M 253.39,229.35 L 343.61,169.50 A 112.00,112.00 0 0,1 356.18,195.35 z" style="fill: none; stroke: #776a00; stroke-width: 1; stroke-opacity: 1.00; stroke-linecap: round; stroke-linejoin: round;" id="ezcGraphCircleSector_11"/><path d="M 250.00,231.00 L 356.81,195.67 A 112.50,112.50 0 0,1 359.96,207.22 z" style="fill: #75505b; fill-opacity: 1.00; stroke: none; cursor: pointer;" id="ezcGraphCircleSector_12" onclick="top.location = 'https://linux-hardware.org/?view=computers&amp;f=snd_model&amp;v=VMware+HD+Audio+Controller&amp;p=0'"/><path d="M 259.06,228.53 L 356.49,196.30 A 112.00,112.00 0 0,1 359.36,206.84 z" style="fill: none; stroke: #3b282e; stroke-width: 1; stroke-opacity: 1.00; stroke-linecap: round; stroke-linejoin: round;" id="ezcGraphCircleSector_13"/><path d="M 250.00,231.00 L 359.96,207.22 A 112.50,112.50 0 0,1 362.50,231.00 z" style="fill: #f57900; fill-opacity: 1.00; stroke: none;" id="ezcGraphCircleSector_14"/><path d="M 254.68,230.50 L 359.57,207.81 A 112.00,112.00 0 0,1 362.00,230.50 z" style="fill: none; stroke: #7b3d00; stroke-width: 1; stroke-opacity: 1.00; stroke-linecap: round; stroke-linejoin: round;" id="ezcGraphCircleSector_15"/><path d=" M 181.3396,297.8564 L 162.7596,326.0000" style="fill: none; stroke: #000000; stroke-width: 1; stroke-opacity: 1.00; stroke-linecap: round; stroke-linejoin: round;" id="ezcGraphLine_16"/><ellipse cx="181.3396" cy="297.8564" rx="3.0000" ry="3.0000" style="fill: #000000; fill-opacity: 1.00; stroke: none;" id="ezcGraphCircle_17"/><ellipse cx="162.7596" cy="326.0000" rx="3.0000" ry="3.0000" style="fill: #000000; fill-opacity: 1.00; stroke: none;" id="ezcGraphCircle_18"/><path d=" M 274.0577,151.2148 L 291.0000,111.0000" style="fill: none; stroke: #000000; stroke-width: 1; stroke-opacity: 1.00; stroke-linecap: round; stroke-linejoin: round;" id="ezcGraphLine_20"/><ellipse cx="274.0577" cy="151.2148" rx="3.0000" ry="3.0000" style="fill: #000000; fill-opacity: 1.00; stroke: none;" id="ezcGraphCircle_21"/><ellipse cx="291.0000" cy="111.0000" rx="3.0000" ry="3.0000" style="fill: #000000; fill-opacity: 1.00; stroke: none;" id="ezcGraphCircle_22"/><path d=" M 308.1360,171.2953 L 347.6515,146.0000" style="fill: none; stroke: #000000; stroke-width: 1; stroke-opacity: 1.00; stroke-linecap: round; stroke-linejoin: round;" id="ezcGraphLine_24"/><ellipse cx="308.1360" cy="171.2953" rx="3.0000" ry="3.0000" style="fill: #000000; fill-opacity: 1.00; stroke: none;" id="ezcGraphCircle_25"/><ellipse cx="347.6515" cy="146.0000" rx="3.0000" ry="3.0000" style="fill: #000000; fill-opacity: 1.00; stroke: none;" id="ezcGraphCircle_26"/><path d=" M 324.9427,194.5577 L 370.5644,181.0000" style="fill: none; stroke: #000000; stroke-width: 1; stroke-opacity: 1.00; stroke-linecap: round; stroke-linejoin: round;" id="ezcGraphLine_28"/><ellipse cx="324.9427" cy="194.5577" rx="3.0000" ry="3.0000" style="fill: #000000; fill-opacity: 1.00; stroke: none;" id="ezcGraphCircle_29"/><ellipse cx="370.5644" cy="181.0000" rx="3.0000" ry="3.0000" style="fill: #000000; fill-opacity: 1.00; stroke: none;" id="ezcGraphCircle_30"/><path d=" M 330.3973,209.0748 L 380.0967,216.0000" style="fill: none; stroke: #000000; stroke-width: 1; stroke-opacity: 1.00; stroke-linecap: round; stroke-linejoin: round;" id="ezcGraphLine_32"/><ellipse cx="330.3973" cy="209.0748" rx="3.0000" ry="3.0000" style="fill: #000000; fill-opacity: 1.00; stroke: none;" id="ezcGraphCircle_33"/><ellipse cx="380.0967" cy="216.0000" rx="3.0000" ry="3.0000" style="fill: #000000; fill-opacity: 1.00; stroke: none;" id="ezcGraphCircle_34"/><path d=" M 332.8612,222.1422 L 379.3896,251.0000" style="fill: none; stroke: #000000; stroke-width: 1; stroke-opacity: 1.00; stroke-linecap: round; stroke-linejoin: round;" id="ezcGraphLine_36"/><ellipse cx="332.8612" cy="222.1422" rx="3.0000" ry="3.0000" style="fill: #000000; fill-opacity: 1.00; stroke: none;" id="ezcGraphCircle_37"/><ellipse cx="379.3896" cy="251.0000" rx="3.0000" ry="3.0000" style="fill: #000000; fill-opacity: 1.00; stroke: none;" id="ezcGraphCircle_38"/><g id="ezcGraphTextBox_3"><path d=" M 132.9000,42.0000 L 132.9000,0.5000 L 367.6000,0.5000 L 367.6000,42.0000 L 132.9000,42.0000 z " style="fill: #ffffff; fill-opacity: 0.00; stroke: none;" id="ezcGraphPolygon_40"/><text id="ezcGraphTextBox_3_text" x="133.4000" text-length="233.2000px" y="35.0000" style="font-size: 40px; font-family: 'Arial'; fill: #2e3436; fill-opacity: 1.00; stroke: none;">Sound Model</text></g><g id="ezcGraphTextBox_19" style=" cursor: pointer;" onclick="top.location = 'https://linux-hardware.org/?view=computers&amp;f=snd_model&amp;v=Intel+82801AA+AC%2797+Audio+Controller&amp;p=0'"><path d=" M 37.5396,341.0500 L 37.5396,311.4500 L 157.7596,311.4500 L 157.7596,341.0500 L 37.5396,341.0500 z " style="fill: #ffffff; fill-opacity: 0.00; stroke: none;" id="ezcGraphPolygon_41"/><text id="ezcGraphTextBox_19_text" x="38.0396" text-length="118.7200px" y="323.8500" style="font-size: 14px; font-family: 'Arial'; fill: #2e3436; fill-opacity: 1.00; stroke: none;">82801AA AC'97...</text><text id="ezcGraphTextBox_19_text" x="104.8196" text-length="51.9400px" y="339.2500" style="font-size: 14px; font-family: 'Arial'; fill: #2e3436; fill-opacity: 1.00; stroke: none;">(75.4%)</text></g><g id="ezcGraphTextBox_23" style=" cursor: pointer;" onclick="top.location = 'https://linux-hardware.org/?view=computers&amp;f=snd_model&amp;v=Ensoniq+ES1371%2FES1373+%2F+Creative+Labs+CT2518&amp;p=0'"><path d=" M 296.5000,119.0000 L 296.5000,103.5000 L 468.6600,103.5000 L 468.6600,119.0000 L 296.5000,119.0000 z " style="fill: #ffffff; fill-opacity: 0.00; stroke: none;" id="ezcGraphPolygon_42"/><text id="ezcGraphTextBox_23_text" x="297.0000" text-length="170.6600px" y="115.9000" style="font-size: 14px; font-family: 'Arial'; fill: #2e3436; fill-opacity: 1.00; stroke: none;">ES1371/ES1373... (8.5%)</text></g><g id="ezcGraphTextBox_27" style=" cursor: pointer;" onclick="top.location = 'https://linux-hardware.org/?view=computers&amp;f=snd_model&amp;v=Intel+82801I+%28ICH9+Family%29+HD+Audio+Controller&amp;p=0'"><path d=" M 353.1515,161.0500 L 353.1515,131.4500 L 473.3715,131.4500 L 473.3715,161.0500 L 353.1515,161.0500 z " style="fill: #ffffff; fill-opacity: 0.00; stroke: none;" id="ezcGraphPolygon_43"/><text id="ezcGraphTextBox_27_text" x="353.6515" text-length="118.7200px" y="143.8500" style="font-size: 14px; font-family: 'Arial'; fill: #2e3436; fill-opacity: 1.00; stroke: none;">82801I (ICH9 ...</text><text id="ezcGraphTextBox_27_text" x="353.6515" text-length="44.5200px" y="159.2500" style="font-size: 14px; font-family: 'Arial'; fill: #2e3436; fill-opacity: 1.00; stroke: none;">(6.8%)</text></g><g id="ezcGraphTextBox_31" style=" cursor: pointer;" onclick="top.location = 'https://linux-hardware.org/?view=computers&amp;f=snd_model&amp;v=Intel+82801FB%2FFBM%2FFR%2FFW%2FFRW+%28ICH6+Family%29+High+Definition+Audio+Controller&amp;p=0'"><path d=" M 376.0644,196.0500 L 376.0644,166.4500 L 496.2844,166.4500 L 496.2844,196.0500 L 376.0644,196.0500 z " style="fill: #ffffff; fill-opacity: 0.00; stroke: none;" id="ezcGraphPolygon_44"/><text id="ezcGraphTextBox_31_text" x="376.5644" text-length="118.7200px" y="178.8500" style="font-size: 14px; font-family: 'Arial'; fill: #2e3436; fill-opacity: 1.00; stroke: none;">82801FB/FBM/F...</text><text id="ezcGraphTextBox_31_text" x="376.5644" text-length="44.5200px" y="194.2500" style="font-size: 14px; font-family: 'Arial'; fill: #2e3436; fill-opacity: 1.00; stroke: none;">(4.2%)</text></g><g id="ezcGraphTextBox_35" style=" cursor: pointer;" onclick="top.location = 'https://linux-hardware.org/?view=computers&amp;f=snd_model&amp;v=VMware+HD+Audio+Controller&amp;p=0'"><path d=" M 385.5967,231.0500 L 385.5967,201.4500 L 490.9767,201.4500 L 490.9767,231.0500 L 385.5967,231.0500 z " style="fill: #ffffff; fill-opacity: 0.00; stroke: none;" id="ezcGraphPolygon_45"/><text id="ezcGraphTextBox_35_text" x="386.0967" text-length="59.3600px" y="213.8500" style="font-size: 14px; font-family: 'Arial'; fill: #2e3436; fill-opacity: 1.00; stroke: none;">HD Audio</text><text id="ezcGraphTextBox_35_text" x="386.0967" text-length="103.8800px" y="229.2500" style="font-size: 14px; font-family: 'Arial'; fill: #2e3436; fill-opacity: 1.00; stroke: none;">Cont... (1.7%)</text></g><g id="ezcGraphTextBox_39"><path d=" M 384.8896,259.0000 L 384.8896,243.5000 L 482.8496,243.5000 L 482.8496,259.0000 L 384.8896,259.0000 z " style="fill: #ffffff; fill-opacity: 0.00; stroke: none;" id="ezcGraphPolygon_46"/><text id="ezcGraphTextBox_39_text" x="385.3896" text-length="96.4600px" y="255.9000" style="font-size: 14px; font-family: 'Arial'; fill: #2e3436; fill-opacity: 1.00; stroke: none;">Others (3.4%)</text></g></g></svg>
