<?xml version="1.0"?>
<svg xmlns="http://www.w3.org/2000/svg" width="500" height="420" version="1.0" id="ezcGraph"><defs/><g id="ezcGraphChart" color-rendering="optimizeQuality" shape-rendering="geometricPrecision" text-rendering="optimizeLegibility"><path d=" M 0.0000,420.0000 L 0.0000,0.0000 L 500.0000,0.0000 L 500.0000,420.0000 L 0.0000,420.0000 z " style="fill: #eeeeec; fill-opacity: 1.00; stroke: none;" id="ezcGraphPolygon_1"/><path d=" M 0.0000,42.0000 L 0.0000,0.0000 L 500.0000,0.0000 L 500.0000,42.0000 L 0.0000,42.0000 z " style="fill: #000000; fill-opacity: 0.00; stroke: none;" id="ezcGraphPolygon_2"/><path d="M 261.94,234.68 L 374.44,234.68 A 112.50,112.50 0 0,1 354.90,298.06 z" style="fill: #3465a4; fill-opacity: 1.00; stroke: none; cursor: pointer;" id="ezcGraphCircleSector_4" onclick="top.location = 'https://linux-hardware.org/?view=computers&amp;f=net_wireless_model&amp;v=TP-Link+AC600+wireless+Realtek+RTL8811AU+%5BArcher+T2U+Nano%5D&amp;p=0'"/><path d="M 263.57,235.18 L 373.94,235.18 A 112.00,112.00 0 0,1 354.77,297.36 z" style="fill: none; stroke: #1a3352; stroke-width: 1; stroke-opacity: 1.00; stroke-linecap: round; stroke-linejoin: round;" id="ezcGraphCircleSector_5"/><path d="M 250.00,231.00 L 342.95,294.37 A 112.50,112.50 0 0,1 291.10,335.72 z" style="fill: #4e9a06; fill-opacity: 1.00; stroke: none; cursor: pointer;" id="ezcGraphCircleSector_6" onclick="top.location = 'https://linux-hardware.org/?view=computers&amp;f=net_wireless_model&amp;v=Ralink+Technology+RT2870%2FRT3070+Wireless+Adapter&amp;p=0'"/><path d="M 251.06,232.33 L 342.26,294.50 A 112.00,112.00 0 0,1 291.38,335.08 z" style="fill: none; stroke: #274d03; stroke-width: 1; stroke-opacity: 1.00; stroke-linecap: round; stroke-linejoin: round;" id="ezcGraphCircleSector_7"/><path d="M 250.00,231.00 L 291.10,335.72 A 112.50,112.50 0 0,1 251.68,343.49 z" style="fill: #cc0000; fill-opacity: 1.00; stroke: none; cursor: pointer;" id="ezcGraphCircleSector_8" onclick="top.location = 'https://linux-hardware.org/?view=computers&amp;f=net_wireless_model&amp;v=Realtek+Semiconductor+RTL8812AU+802.11a%2Fb%2Fg%2Fn%2Fac+2T2R+DB+WLAN+Adapter&amp;p=0'"/><path d="M 250.54,233.75 L 290.45,335.44 A 112.00,112.00 0 0,1 252.18,342.98 z" style="fill: none; stroke: #660000; stroke-width: 1; stroke-opacity: 1.00; stroke-linecap: round; stroke-linejoin: round;" id="ezcGraphCircleSector_9"/><path d="M 250.00,231.00 L 251.68,343.49 A 112.50,112.50 0 0,1 218.45,338.99 z" style="fill: #edd400; fill-opacity: 1.00; stroke: none; cursor: pointer;" id="ezcGraphCircleSector_10" onclick="top.location = 'https://linux-hardware.org/?view=computers&amp;f=net_wireless_model&amp;v=Ralink+Technology+RT5572+Wireless+Adapter&amp;p=0'"/><path d="M 249.55,234.32 L 251.18,342.99 A 112.00,112.00 0 0,1 219.07,338.65 z" style="fill: none; stroke: #776a00; stroke-width: 1; stroke-opacity: 1.00; stroke-linecap: round; stroke-linejoin: round;" id="ezcGraphCircleSector_11"/><path d="M 250.00,231.00 L 218.45,338.99 A 112.50,112.50 0 0,1 188.02,324.89 z" style="fill: #75505b; fill-opacity: 1.00; stroke: none; cursor: pointer;" id="ezcGraphCircleSector_12" onclick="top.location = 'https://linux-hardware.org/?view=computers&amp;f=net_wireless_model&amp;v=Intel+Wi-Fi+6+AX200&amp;p=0'"/><path d="M 248.59,234.04 L 218.11,338.37 A 112.00,112.00 0 0,1 188.72,324.75 z" style="fill: none; stroke: #3b282e; stroke-width: 1; stroke-opacity: 1.00; stroke-linecap: round; stroke-linejoin: round;" id="ezcGraphCircleSector_13"/><path d="M 250.00,231.00 L 188.02,324.89 A 112.50,112.50 0 1,1 362.50,231.00 z" style="fill: #f57900; fill-opacity: 1.00; stroke: none;" id="ezcGraphCircleSector_14"/><path d="M 249.73,230.50 L 187.88,324.20 A 112.00,112.00 0 1,1 362.00,230.50 z" style="fill: none; stroke: #7b3d00; stroke-width: 1; stroke-opacity: 1.00; stroke-linecap: round; stroke-linejoin: round;" id="ezcGraphCircleSector_15"/><path d=" M 210.5109,157.6170 L 186.5196,120.0000" style="fill: none; stroke: #000000; stroke-width: 1; stroke-opacity: 1.00; stroke-linecap: round; stroke-linejoin: round;" id="ezcGraphLine_16"/><ellipse cx="210.5109" cy="157.6170" rx="3.0000" ry="3.0000" style="fill: #000000; fill-opacity: 1.00; stroke: none;" id="ezcGraphCircle_17"/><ellipse cx="186.5196" cy="120.0000" rx="3.0000" ry="3.0000" style="fill: #000000; fill-opacity: 1.00; stroke: none;" id="ezcGraphCircle_18"/><path d=" M 214.9702,306.6132 L 190.5584,344.0000" style="fill: none; stroke: #000000; stroke-width: 1; stroke-opacity: 1.00; stroke-linecap: round; stroke-linejoin: round;" id="ezcGraphLine_20"/><ellipse cx="214.9702" cy="306.6132" rx="3.0000" ry="3.0000" style="fill: #000000; fill-opacity: 1.00; stroke: none;" id="ezcGraphCircle_21"/><ellipse cx="190.5584" cy="344.0000" rx="3.0000" ry="3.0000" style="fill: #000000; fill-opacity: 1.00; stroke: none;" id="ezcGraphCircle_22"/><path d=" M 238.8139,313.5791 L 238.8139,381.8000" style="fill: none; stroke: #000000; stroke-width: 1; stroke-opacity: 1.00; stroke-linecap: round; stroke-linejoin: round;" id="ezcGraphLine_24"/><ellipse cx="238.8139" cy="313.5791" rx="3.0000" ry="3.0000" style="fill: #000000; fill-opacity: 1.00; stroke: none;" id="ezcGraphCircle_25"/><ellipse cx="238.8139" cy="381.8000" rx="3.0000" ry="3.0000" style="fill: #000000; fill-opacity: 1.00; stroke: none;" id="ezcGraphCircle_26"/><path d=" M 341.5757,259.2474 L 374.4272,271.0000" style="fill: none; stroke: #000000; stroke-width: 1; stroke-opacity: 1.00; stroke-linecap: round; stroke-linejoin: round;" id="ezcGraphLine_28"/><ellipse cx="341.5757" cy="259.2474" rx="3.0000" ry="3.0000" style="fill: #000000; fill-opacity: 1.00; stroke: none;" id="ezcGraphCircle_29"/><ellipse cx="374.4272" cy="271.0000" rx="3.0000" ry="3.0000" style="fill: #000000; fill-opacity: 1.00; stroke: none;" id="ezcGraphCircle_30"/><path d=" M 301.9575,296.1526 L 334.8416,328.0000" style="fill: none; stroke: #000000; stroke-width: 1; stroke-opacity: 1.00; stroke-linecap: round; stroke-linejoin: round;" id="ezcGraphLine_32"/><ellipse cx="301.9575" cy="296.1526" rx="3.0000" ry="3.0000" style="fill: #000000; fill-opacity: 1.00; stroke: none;" id="ezcGraphCircle_33"/><ellipse cx="334.8416" cy="328.0000" rx="3.0000" ry="3.0000" style="fill: #000000; fill-opacity: 1.00; stroke: none;" id="ezcGraphCircle_34"/><path d=" M 266.1047,312.7624 L 266.1047,365.8000" style="fill: none; stroke: #000000; stroke-width: 1; stroke-opacity: 1.00; stroke-linecap: round; stroke-linejoin: round;" id="ezcGraphLine_36"/><ellipse cx="266.1047" cy="312.7624" rx="3.0000" ry="3.0000" style="fill: #000000; fill-opacity: 1.00; stroke: none;" id="ezcGraphCircle_37"/><ellipse cx="266.1047" cy="365.8000" rx="3.0000" ry="3.0000" style="fill: #000000; fill-opacity: 1.00; stroke: none;" id="ezcGraphCircle_38"/><g id="ezcGraphTextBox_3"><path d=" M 101.1000,42.0000 L 101.1000,0.5000 L 399.4000,0.5000 L 399.4000,42.0000 L 101.1000,42.0000 z " style="fill: #ffffff; fill-opacity: 0.00; stroke: none;" id="ezcGraphPolygon_40"/><text id="ezcGraphTextBox_3_text" x="101.6000" text-length="296.8000px" y="35.0000" style="font-size: 40px; font-family: 'Arial'; fill: #2e3436; fill-opacity: 1.00; stroke: none;">Wireless Model</text></g><g id="ezcGraphTextBox_19"><path d=" M 77.6236,127.9000 L 77.6236,112.6000 L 181.5196,112.6000 L 181.5196,127.9000 L 77.6236,127.9000 z " style="fill: #ffffff; fill-opacity: 0.00; stroke: none;" id="ezcGraphPolygon_41"/><text id="ezcGraphTextBox_19_text" x="78.1236" text-length="102.3960px" y="124.8300" style="font-size: 13px; font-family: 'Arial'; fill: #2e3436; fill-opacity: 1.00; stroke: none;">Others (65.7%)</text></g><g id="ezcGraphTextBox_23" style=" cursor: pointer;" onclick="top.location = 'https://linux-hardware.org/?view=computers&amp;f=net_wireless_model&amp;v=Intel+Wi-Fi+6+AX200&amp;p=0'"><path d=" M 88.9764,358.8500 L 88.9764,329.6500 L 185.5584,329.6500 L 185.5584,358.8500 L 88.9764,358.8500 z " style="fill: #ffffff; fill-opacity: 0.00; stroke: none;" id="ezcGraphPolygon_42"/><text id="ezcGraphTextBox_23_text" x="89.4764" text-length="95.0820px" y="341.8800" style="font-size: 13px; font-family: 'Arial'; fill: #2e3436; fill-opacity: 1.00; stroke: none;">Wi-Fi 6 AX200</text><text id="ezcGraphTextBox_23_text" x="140.6744" text-length="43.8840px" y="357.0600" style="font-size: 13px; font-family: 'Arial'; fill: #2e3436; fill-opacity: 1.00; stroke: none;">(4.8%)</text></g><g id="ezcGraphTextBox_27" style=" cursor: pointer;" onclick="top.location = 'https://linux-hardware.org/?view=computers&amp;f=net_wireless_model&amp;v=Ralink+Technology+RT5572+Wireless+Adapter&amp;p=0'"><path d=" M 64.0919,389.7000 L 64.0919,374.4000 L 233.8139,374.4000 L 233.8139,389.7000 L 64.0919,389.7000 z " style="fill: #ffffff; fill-opacity: 0.00; stroke: none;" id="ezcGraphPolygon_43"/><text id="ezcGraphTextBox_27_text" x="64.5919" text-length="168.2220px" y="386.6300" style="font-size: 13px; font-family: 'Arial'; fill: #2e3436; fill-opacity: 1.00; stroke: none;">RT5572 Wirele... (4.8%)</text></g><g id="ezcGraphTextBox_31" style=" cursor: pointer;" onclick="top.location = 'https://linux-hardware.org/?view=computers&amp;f=net_wireless_model&amp;v=TP-Link+AC600+wireless+Realtek+RTL8811AU+%5BArcher+T2U+Nano%5D&amp;p=0'"><path d=" M 379.9272,285.8500 L 379.9272,256.6500 L 498.4512,256.6500 L 498.4512,285.8500 L 379.9272,285.8500 z " style="fill: #ffffff; fill-opacity: 0.00; stroke: none;" id="ezcGraphPolygon_44"/><text id="ezcGraphTextBox_31_text" x="380.4272" text-length="117.0240px" y="268.8800" style="font-size: 13px; font-family: 'Arial'; fill: #2e3436; fill-opacity: 1.00; stroke: none;">AC600 wireles...</text><text id="ezcGraphTextBox_31_text" x="380.4272" text-length="43.8840px" y="284.0600" style="font-size: 13px; font-family: 'Arial'; fill: #2e3436; fill-opacity: 1.00; stroke: none;">(9.5%)</text></g><g id="ezcGraphTextBox_35" style=" cursor: pointer;" onclick="top.location = 'https://linux-hardware.org/?view=computers&amp;f=net_wireless_model&amp;v=Ralink+Technology+RT2870%2FRT3070+Wireless+Adapter&amp;p=0'"><path d=" M 340.3416,342.8500 L 340.3416,313.6500 L 458.8656,313.6500 L 458.8656,342.8500 L 340.3416,342.8500 z " style="fill: #ffffff; fill-opacity: 0.00; stroke: none;" id="ezcGraphPolygon_45"/><text id="ezcGraphTextBox_35_text" x="340.8416" text-length="117.0240px" y="325.8800" style="font-size: 13px; font-family: 'Arial'; fill: #2e3436; fill-opacity: 1.00; stroke: none;">RT2870/RT3070...</text><text id="ezcGraphTextBox_35_text" x="340.8416" text-length="43.8840px" y="341.0600" style="font-size: 13px; font-family: 'Arial'; fill: #2e3436; fill-opacity: 1.00; stroke: none;">(9.5%)</text></g><g id="ezcGraphTextBox_39" style=" cursor: pointer;" onclick="top.location = 'https://linux-hardware.org/?view=computers&amp;f=net_wireless_model&amp;v=Realtek+Semiconductor+RTL8812AU+802.11a%2Fb%2Fg%2Fn%2Fac+2T2R+DB+WLAN+Adapter&amp;p=0'"><path d=" M 271.6047,373.7000 L 271.6047,358.4000 L 441.3267,358.4000 L 441.3267,373.7000 L 271.6047,373.7000 z " style="fill: #ffffff; fill-opacity: 0.00; stroke: none;" id="ezcGraphPolygon_46"/><text id="ezcGraphTextBox_39_text" x="272.1047" text-length="168.2220px" y="370.6300" style="font-size: 13px; font-family: 'Arial'; fill: #2e3436; fill-opacity: 1.00; stroke: none;">RTL8812AU 802... (5.7%)</text></g></g></svg>
