<?xml version="1.0"?>
<svg xmlns="http://www.w3.org/2000/svg" width="500" height="420" version="1.0" id="ezcGraph"><defs/><g id="ezcGraphChart" color-rendering="optimizeQuality" shape-rendering="geometricPrecision" text-rendering="optimizeLegibility"><path d=" M 0.0000,420.0000 L 0.0000,0.0000 L 500.0000,0.0000 L 500.0000,420.0000 L 0.0000,420.0000 z " style="fill: #eeeeec; fill-opacity: 1.00; stroke: none;" id="ezcGraphPolygon_1"/><path d=" M 0.0000,42.0000 L 0.0000,0.0000 L 500.0000,0.0000 L 500.0000,42.0000 L 0.0000,42.0000 z " style="fill: #000000; fill-opacity: 0.00; stroke: none;" id="ezcGraphPolygon_2"/><path d="M 238.45,235.79 L 350.95,235.79 A 112.50,112.50 0 1,1 317.96,156.19 z" style="fill: #3465a4; fill-opacity: 1.00; stroke: none; cursor: pointer;" id="ezcGraphCircleSector_4" onclick="top.location = 'https://linux-hardware.org/?view=computers&amp;f=cpu_sockets&amp;v=1&amp;p=0'"/><path d="M 237.25,236.29 L 350.45,236.29 A 112.00,112.00 0 1,1 317.25,156.19 z" style="fill: none; stroke: #1a3352; stroke-width: 1; stroke-opacity: 1.00; stroke-linecap: round; stroke-linejoin: round;" id="ezcGraphCircleSector_5"/><path d="M 250.00,231.00 L 329.50,151.40 A 112.50,112.50 0 0,1 358.47,201.15 z" style="fill: #4e9a06; fill-opacity: 1.00; stroke: none; cursor: pointer;" id="ezcGraphCircleSector_6" onclick="top.location = 'https://linux-hardware.org/?view=computers&amp;f=cpu_sockets&amp;v=2&amp;p=0'"/><path d="M 251.69,230.02 L 329.50,152.11 A 112.00,112.00 0 0,1 357.85,200.80 z" style="fill: none; stroke: #274d03; stroke-width: 1; stroke-opacity: 1.00; stroke-linecap: round; stroke-linejoin: round;" id="ezcGraphCircleSector_7"/><path d="M 250.00,231.00 L 358.47,201.15 A 112.50,112.50 0 0,1 362.15,222.11 z" style="fill: #cc0000; fill-opacity: 1.00; stroke: none; cursor: pointer;" id="ezcGraphCircleSector_8" onclick="top.location = 'https://linux-hardware.org/?view=computers&amp;f=cpu_sockets&amp;v=4&amp;p=0'"/><path d="M 255.20,230.09 L 358.12,201.76 A 112.00,112.00 0 0,1 361.61,221.66 z" style="fill: none; stroke: #660000; stroke-width: 1; stroke-opacity: 1.00; stroke-linecap: round; stroke-linejoin: round;" id="ezcGraphCircleSector_9"/><path d="M 250.00,231.00 L 362.15,222.11 A 112.50,112.50 0 0,1 362.41,226.42 z" style="fill: #edd400; fill-opacity: 1.00; stroke: none; cursor: pointer;" id="ezcGraphCircleSector_10" onclick="top.location = 'https://linux-hardware.org/?view=computers&amp;f=cpu_sockets&amp;v=8&amp;p=0'"/><path d="M 276.02,229.44 L 361.69,222.65 A 112.00,112.00 0 0,1 361.89,225.94 z" style="fill: none; stroke: #776a00; stroke-width: 1; stroke-opacity: 1.00; stroke-linecap: round; stroke-linejoin: round;" id="ezcGraphCircleSector_11"/><path d="M 250.00,231.00 L 362.41,226.42 A 112.50,112.50 0 0,1 362.47,228.25 z" style="fill: #75505b; fill-opacity: 1.00; stroke: none; cursor: pointer;" id="ezcGraphCircleSector_12" onclick="top.location = 'https://linux-hardware.org/?view=computers&amp;f=cpu_sockets&amp;v=3&amp;p=0'"/><path d="M 311.40,229.00 L 361.93,226.94 A 112.00,112.00 0 0,1 361.95,227.77 z" style="fill: none; stroke: #3b282e; stroke-width: 1; stroke-opacity: 1.00; stroke-linecap: round; stroke-linejoin: round;" id="ezcGraphCircleSector_13"/><path d="M 250.00,231.00 L 362.47,228.25 A 112.50,112.50 0 0,1 362.50,231.00 z" style="fill: #f57900; fill-opacity: 1.00; stroke: none;" id="ezcGraphCircleSector_14"/><path d="M 290.95,230.50 L 361.98,228.77 A 112.00,112.00 0 0,1 362.00,230.50 z" style="fill: none; stroke: #7b3d00; stroke-width: 1; stroke-opacity: 1.00; stroke-linecap: round; stroke-linejoin: round;" id="ezcGraphCircleSector_15"/><path d=" M 161.4722,267.6996 L 130.3294,283.0000" style="fill: none; stroke: #000000; stroke-width: 1; stroke-opacity: 1.00; stroke-linecap: round; stroke-linejoin: round;" id="ezcGraphLine_16"/><ellipse cx="161.4722" cy="267.6996" rx="3.0000" ry="3.0000" style="fill: #000000; fill-opacity: 1.00; stroke: none;" id="ezcGraphCircle_17"/><ellipse cx="130.3294" cy="283.0000" rx="3.0000" ry="3.0000" style="fill: #000000; fill-opacity: 1.00; stroke: none;" id="ezcGraphCircle_18"/><path d=" M 322.0149,189.0679 L 363.9630,168.0000" style="fill: none; stroke: #000000; stroke-width: 1; stroke-opacity: 1.00; stroke-linecap: round; stroke-linejoin: round;" id="ezcGraphLine_20"/><ellipse cx="322.0149" cy="189.0679" rx="3.0000" ry="3.0000" style="fill: #000000; fill-opacity: 1.00; stroke: none;" id="ezcGraphCircle_21"/><ellipse cx="363.9630" cy="168.0000" rx="3.0000" ry="3.0000" style="fill: #000000; fill-opacity: 1.00; stroke: none;" id="ezcGraphCircle_22"/><path d=" M 332.0776,216.5876 L 379.0488,209.0000" style="fill: none; stroke: #000000; stroke-width: 1; stroke-opacity: 1.00; stroke-linecap: round; stroke-linejoin: round;" id="ezcGraphLine_24"/><ellipse cx="332.0776" cy="216.5876" rx="3.0000" ry="3.0000" style="fill: #000000; fill-opacity: 1.00; stroke: none;" id="ezcGraphCircle_25"/><ellipse cx="379.0488" cy="209.0000" rx="3.0000" ry="3.0000" style="fill: #000000; fill-opacity: 1.00; stroke: none;" id="ezcGraphCircle_26"/><path d=" M 333.1840,226.0131 L 380.3222,244.0000" style="fill: none; stroke: #000000; stroke-width: 1; stroke-opacity: 1.00; stroke-linecap: round; stroke-linejoin: round;" id="ezcGraphLine_28"/><ellipse cx="333.1840" cy="226.0131" rx="3.0000" ry="3.0000" style="fill: #000000; fill-opacity: 1.00; stroke: none;" id="ezcGraphCircle_29"/><ellipse cx="380.3222" cy="244.0000" rx="3.0000" ry="3.0000" style="fill: #000000; fill-opacity: 1.00; stroke: none;" id="ezcGraphCircle_30"/><path d=" M 333.2892,228.2875 L 371.4166,279.0000" style="fill: none; stroke: #000000; stroke-width: 1; stroke-opacity: 1.00; stroke-linecap: round; stroke-linejoin: round;" id="ezcGraphLine_32"/><ellipse cx="333.2892" cy="228.2875" rx="3.0000" ry="3.0000" style="fill: #000000; fill-opacity: 1.00; stroke: none;" id="ezcGraphCircle_33"/><ellipse cx="371.4166" cy="279.0000" rx="3.0000" ry="3.0000" style="fill: #000000; fill-opacity: 1.00; stroke: none;" id="ezcGraphCircle_34"/><path d=" M 333.3271,229.9827 L 349.4666,314.0000" style="fill: none; stroke: #000000; stroke-width: 1; stroke-opacity: 1.00; stroke-linecap: round; stroke-linejoin: round;" id="ezcGraphLine_36"/><ellipse cx="333.3271" cy="229.9827" rx="3.0000" ry="3.0000" style="fill: #000000; fill-opacity: 1.00; stroke: none;" id="ezcGraphCircle_37"/><ellipse cx="349.4666" cy="314.0000" rx="3.0000" ry="3.0000" style="fill: #000000; fill-opacity: 1.00; stroke: none;" id="ezcGraphCircle_38"/><g id="ezcGraphTextBox_3"><path d=" M 132.9000,42.0000 L 132.9000,0.5000 L 367.6000,0.5000 L 367.6000,42.0000 L 132.9000,42.0000 z " style="fill: #ffffff; fill-opacity: 0.00; stroke: none;" id="ezcGraphPolygon_40"/><text id="ezcGraphTextBox_3_text" x="133.4000" text-length="233.2000px" y="35.0000" style="font-size: 40px; font-family: 'Arial'; fill: #2e3436; fill-opacity: 1.00; stroke: none;">CPU Sockets</text></g><g id="ezcGraphTextBox_19" style=" cursor: pointer;" onclick="top.location = 'https://linux-hardware.org/?view=computers&amp;f=cpu_sockets&amp;v=1&amp;p=0'"><path d=" M 28.4294,294.0000 L 28.4294,272.5000 L 125.3294,272.5000 L 125.3294,294.0000 L 28.4294,294.0000 z " style="fill: #ffffff; fill-opacity: 0.00; stroke: none;" id="ezcGraphPolygon_41"/><text id="ezcGraphTextBox_19_text" x="28.9294" text-length="95.4000px" y="290.0000" style="font-size: 20px; font-family: 'Arial'; fill: #2e3436; fill-opacity: 1.00; stroke: none;">1 (87.5%)</text></g><g id="ezcGraphTextBox_23" style=" cursor: pointer;" onclick="top.location = 'https://linux-hardware.org/?view=computers&amp;f=cpu_sockets&amp;v=2&amp;p=0'"><path d=" M 369.4630,179.0000 L 369.4630,157.5000 L 455.7630,157.5000 L 455.7630,179.0000 L 369.4630,179.0000 z " style="fill: #ffffff; fill-opacity: 0.00; stroke: none;" id="ezcGraphPolygon_42"/><text id="ezcGraphTextBox_23_text" x="369.9630" text-length="84.8000px" y="175.0000" style="font-size: 20px; font-family: 'Arial'; fill: #2e3436; fill-opacity: 1.00; stroke: none;">2 (8.2%)</text></g><g id="ezcGraphTextBox_27" style=" cursor: pointer;" onclick="top.location = 'https://linux-hardware.org/?view=computers&amp;f=cpu_sockets&amp;v=4&amp;p=0'"><path d=" M 384.5488,220.0000 L 384.5488,198.5000 L 470.8488,198.5000 L 470.8488,220.0000 L 384.5488,220.0000 z " style="fill: #ffffff; fill-opacity: 0.00; stroke: none;" id="ezcGraphPolygon_43"/><text id="ezcGraphTextBox_27_text" x="385.0488" text-length="84.8000px" y="216.0000" style="font-size: 20px; font-family: 'Arial'; fill: #2e3436; fill-opacity: 1.00; stroke: none;">4 (3.0%)</text></g><g id="ezcGraphTextBox_31" style=" cursor: pointer;" onclick="top.location = 'https://linux-hardware.org/?view=computers&amp;f=cpu_sockets&amp;v=8&amp;p=0'"><path d=" M 385.8222,255.0000 L 385.8222,233.5000 L 472.1222,233.5000 L 472.1222,255.0000 L 385.8222,255.0000 z " style="fill: #ffffff; fill-opacity: 0.00; stroke: none;" id="ezcGraphPolygon_44"/><text id="ezcGraphTextBox_31_text" x="386.3222" text-length="84.8000px" y="251.0000" style="font-size: 20px; font-family: 'Arial'; fill: #2e3436; fill-opacity: 1.00; stroke: none;">8 (0.6%)</text></g><g id="ezcGraphTextBox_35" style=" cursor: pointer;" onclick="top.location = 'https://linux-hardware.org/?view=computers&amp;f=cpu_sockets&amp;v=3&amp;p=0'"><path d=" M 376.9166,290.0000 L 376.9166,268.5000 L 463.2166,268.5000 L 463.2166,290.0000 L 376.9166,290.0000 z " style="fill: #ffffff; fill-opacity: 0.00; stroke: none;" id="ezcGraphPolygon_45"/><text id="ezcGraphTextBox_35_text" x="377.4166" text-length="84.8000px" y="286.0000" style="font-size: 20px; font-family: 'Arial'; fill: #2e3436; fill-opacity: 1.00; stroke: none;">3 (0.3%)</text></g><g id="ezcGraphTextBox_39"><path d=" M 354.9666,325.0000 L 354.9666,303.5000 L 494.2666,303.5000 L 494.2666,325.0000 L 354.9666,325.0000 z " style="fill: #ffffff; fill-opacity: 0.00; stroke: none;" id="ezcGraphPolygon_46"/><text id="ezcGraphTextBox_39_text" x="355.4666" text-length="137.8000px" y="321.0000" style="font-size: 20px; font-family: 'Arial'; fill: #2e3436; fill-opacity: 1.00; stroke: none;">Others (0.4%)</text></g></g></svg>
