<?xml version="1.0"?>
<svg xmlns="http://www.w3.org/2000/svg" width="500" height="420" version="1.0" id="ezcGraph"><defs/><g id="ezcGraphChart" color-rendering="optimizeQuality" shape-rendering="geometricPrecision" text-rendering="optimizeLegibility"><path d=" M 0.0000,420.0000 L 0.0000,0.0000 L 500.0000,0.0000 L 500.0000,420.0000 L 0.0000,420.0000 z " style="fill: #eeeeec; fill-opacity: 1.00; stroke: none;" id="ezcGraphPolygon_1"/><path d=" M 0.0000,42.0000 L 0.0000,0.0000 L 500.0000,0.0000 L 500.0000,42.0000 L 0.0000,42.0000 z " style="fill: #000000; fill-opacity: 0.00; stroke: none;" id="ezcGraphPolygon_2"/><path d="M 241.53,240.20 L 354.03,240.20 A 112.50,112.50 0 1,1 232.27,128.08 z" style="fill: #3465a4; fill-opacity: 1.00; stroke: none; cursor: pointer;" id="ezcGraphCircleSector_4" onclick="top.location = 'https://linux-hardware.org/?view=computers&amp;f=gpu_vendor&amp;v=VMware&amp;p=0'"/><path d="M 241.07,240.70 L 353.53,240.70 A 112.00,112.00 0 1,1 231.81,128.62 z" style="fill: none; stroke: #1a3352; stroke-width: 1; stroke-opacity: 1.00; stroke-linecap: round; stroke-linejoin: round;" id="ezcGraphCircleSector_5"/><path d="M 250.00,231.00 L 240.74,118.88 A 112.50,112.50 0 0,1 321.95,144.52 z" style="fill: #4e9a06; fill-opacity: 1.00; stroke: none; cursor: pointer;" id="ezcGraphCircleSector_6" onclick="top.location = 'https://linux-hardware.org/?view=computers&amp;f=gpu_vendor&amp;v=InnoTek+Systemberatung&amp;p=0'"/><path d="M 250.40,229.74 L 241.28,119.34 A 112.00,112.00 0 0,1 321.24,144.58 z" style="fill: none; stroke: #274d03; stroke-width: 1; stroke-opacity: 1.00; stroke-linecap: round; stroke-linejoin: round;" id="ezcGraphCircleSector_7"/><path d="M 250.00,231.00 L 321.95,144.52 A 112.50,112.50 0 0,1 361.79,218.40 z" style="fill: #cc0000; fill-opacity: 1.00; stroke: none; cursor: pointer;" id="ezcGraphCircleSector_8" onclick="top.location = 'https://linux-hardware.org/?view=computers&amp;f=gpu_vendor&amp;v=Red+Hat&amp;p=0'"/><path d="M 251.18,230.36 L 322.01,145.22 A 112.00,112.00 0 0,1 361.24,217.96 z" style="fill: none; stroke: #660000; stroke-width: 1; stroke-opacity: 1.00; stroke-linecap: round; stroke-linejoin: round;" id="ezcGraphCircleSector_9"/><path d="M 250.00,231.00 L 361.79,218.40 A 112.50,112.50 0 0,1 362.31,224.43 z" style="fill: #edd400; fill-opacity: 1.00; stroke: none; cursor: pointer;" id="ezcGraphCircleSector_10" onclick="top.location = 'https://linux-hardware.org/?view=computers&amp;f=gpu_vendor&amp;v=Technical&amp;p=0'"/><path d="M 268.53,229.41 L 361.35,218.95 A 112.00,112.00 0 0,1 361.78,223.96 z" style="fill: none; stroke: #776a00; stroke-width: 1; stroke-opacity: 1.00; stroke-linecap: round; stroke-linejoin: round;" id="ezcGraphCircleSector_11"/><path d="M 250.00,231.00 L 362.31,224.43 A 112.50,112.50 0 0,1 362.50,230.47 z" style="fill: #75505b; fill-opacity: 1.00; stroke: none; cursor: pointer;" id="ezcGraphCircleSector_12" onclick="top.location = 'https://linux-hardware.org/?view=computers&amp;f=gpu_vendor&amp;v=Microsoft&amp;p=0'"/><path d="M 268.59,230.41 L 361.84,224.96 A 112.00,112.00 0 0,1 362.00,229.98 z" style="fill: none; stroke: #3b282e; stroke-width: 1; stroke-opacity: 1.00; stroke-linecap: round; stroke-linejoin: round;" id="ezcGraphCircleSector_13"/><path d="M 250.00,231.00 L 362.50,230.47 A 112.50,112.50 0 0,1 362.50,231.00 z" style="fill: #f57900; fill-opacity: 1.00; stroke: none;" id="ezcGraphCircleSector_14"/><path d=" M 185.0852,301.4989 L 170.3522,332.0000" style="fill: none; stroke: #000000; stroke-width: 1; stroke-opacity: 1.00; stroke-linecap: round; stroke-linejoin: round;" id="ezcGraphLine_15"/><ellipse cx="185.0852" cy="301.4989" rx="3.0000" ry="3.0000" style="fill: #000000; fill-opacity: 1.00; stroke: none;" id="ezcGraphCircle_16"/><ellipse cx="170.3522" cy="332.0000" rx="3.0000" ry="3.0000" style="fill: #000000; fill-opacity: 1.00; stroke: none;" id="ezcGraphCircle_17"/><path d=" M 275.0833,151.5313 L 291.0000,111.0000" style="fill: none; stroke: #000000; stroke-width: 1; stroke-opacity: 1.00; stroke-linecap: round; stroke-linejoin: round;" id="ezcGraphLine_19"/><ellipse cx="275.0833" cy="151.5313" rx="3.0000" ry="3.0000" style="fill: #000000; fill-opacity: 1.00; stroke: none;" id="ezcGraphCircle_20"/><ellipse cx="291.0000" cy="111.0000" rx="3.0000" ry="3.0000" style="fill: #000000; fill-opacity: 1.00; stroke: none;" id="ezcGraphCircle_21"/><path d=" M 323.3480,191.4460 L 365.6586,171.0000" style="fill: none; stroke: #000000; stroke-width: 1; stroke-opacity: 1.00; stroke-linecap: round; stroke-linejoin: round;" id="ezcGraphLine_23"/><ellipse cx="323.3480" cy="191.4460" rx="3.0000" ry="3.0000" style="fill: #000000; fill-opacity: 1.00; stroke: none;" id="ezcGraphCircle_24"/><ellipse cx="365.6586" cy="171.0000" rx="3.0000" ry="3.0000" style="fill: #000000; fill-opacity: 1.00; stroke: none;" id="ezcGraphCircle_25"/><path d=" M 333.0300,223.8961 L 380.5151,220.0000" style="fill: none; stroke: #000000; stroke-width: 1; stroke-opacity: 1.00; stroke-linecap: round; stroke-linejoin: round;" id="ezcGraphLine_27"/><ellipse cx="333.0300" cy="223.8961" rx="3.0000" ry="3.0000" style="fill: #000000; fill-opacity: 1.00; stroke: none;" id="ezcGraphCircle_28"/><ellipse cx="380.5151" cy="220.0000" rx="3.0000" ry="3.0000" style="fill: #000000; fill-opacity: 1.00; stroke: none;" id="ezcGraphCircle_29"/><path d=" M 333.2918,228.3698 L 378.6744,255.0000" style="fill: none; stroke: #000000; stroke-width: 1; stroke-opacity: 1.00; stroke-linecap: round; stroke-linejoin: round;" id="ezcGraphLine_31"/><ellipse cx="333.2918" cy="228.3698" rx="3.0000" ry="3.0000" style="fill: #000000; fill-opacity: 1.00; stroke: none;" id="ezcGraphCircle_32"/><ellipse cx="378.6744" cy="255.0000" rx="3.0000" ry="3.0000" style="fill: #000000; fill-opacity: 1.00; stroke: none;" id="ezcGraphCircle_33"/><path d=" M 333.3331,230.8051 L 366.1998,290.0000" style="fill: none; stroke: #000000; stroke-width: 1; stroke-opacity: 1.00; stroke-linecap: round; stroke-linejoin: round;" id="ezcGraphLine_35"/><ellipse cx="333.3331" cy="230.8051" rx="3.0000" ry="3.0000" style="fill: #000000; fill-opacity: 1.00; stroke: none;" id="ezcGraphCircle_36"/><ellipse cx="366.1998" cy="290.0000" rx="3.0000" ry="3.0000" style="fill: #000000; fill-opacity: 1.00; stroke: none;" id="ezcGraphCircle_37"/><g id="ezcGraphTextBox_3"><path d=" M 143.5000,42.0000 L 143.5000,0.5000 L 357.0000,0.5000 L 357.0000,42.0000 L 143.5000,42.0000 z " style="fill: #ffffff; fill-opacity: 0.00; stroke: none;" id="ezcGraphPolygon_39"/><text id="ezcGraphTextBox_3_text" x="144.0000" text-length="212.0000px" y="35.0000" style="font-size: 40px; font-family: 'Arial'; fill: #2e3436; fill-opacity: 1.00; stroke: none;">GPU Vendor</text></g><g id="ezcGraphTextBox_18" style=" cursor: pointer;" onclick="top.location = 'https://linux-hardware.org/?view=computers&amp;f=gpu_vendor&amp;v=VMware&amp;p=0'"><path d=" M 45.1322,341.0000 L 45.1322,323.5000 L 165.3522,323.5000 L 165.3522,341.0000 L 45.1322,341.0000 z " style="fill: #ffffff; fill-opacity: 0.00; stroke: none;" id="ezcGraphPolygon_40"/><text id="ezcGraphTextBox_18_text" x="45.6322" text-length="118.7200px" y="337.6000" style="font-size: 16px; font-family: 'Arial'; fill: #2e3436; fill-opacity: 1.00; stroke: none;">VMware (73.7%)</text></g><g id="ezcGraphTextBox_22" style=" cursor: pointer;" onclick="top.location = 'https://linux-hardware.org/?view=computers&amp;f=gpu_vendor&amp;v=InnoTek+Systemberatung&amp;p=0'"><path d=" M 296.5000,128.0500 L 296.5000,94.4500 L 433.6800,94.4500 L 433.6800,128.0500 L 296.5000,128.0500 z " style="fill: #ffffff; fill-opacity: 0.00; stroke: none;" id="ezcGraphPolygon_41"/><text id="ezcGraphTextBox_22_text" x="297.0000" text-length="135.6800px" y="108.5500" style="font-size: 16px; font-family: 'Arial'; fill: #2e3436; fill-opacity: 1.00; stroke: none;">InnoTek Syste...</text><text id="ezcGraphTextBox_22_text" x="297.0000" text-length="59.3600px" y="126.1500" style="font-size: 16px; font-family: 'Arial'; fill: #2e3436; fill-opacity: 1.00; stroke: none;">(12.4%)</text></g><g id="ezcGraphTextBox_26" style=" cursor: pointer;" onclick="top.location = 'https://linux-hardware.org/?view=computers&amp;f=gpu_vendor&amp;v=Red+Hat&amp;p=0'"><path d=" M 371.1586,180.0000 L 371.1586,162.5000 L 499.8586,162.5000 L 499.8586,180.0000 L 371.1586,180.0000 z " style="fill: #ffffff; fill-opacity: 0.00; stroke: none;" id="ezcGraphPolygon_42"/><text id="ezcGraphTextBox_26_text" x="371.6586" text-length="127.2000px" y="176.6000" style="font-size: 16px; font-family: 'Arial'; fill: #2e3436; fill-opacity: 1.00; stroke: none;">Red Hat (12.2%)</text></g><g id="ezcGraphTextBox_30" style=" cursor: pointer;" onclick="top.location = 'https://linux-hardware.org/?view=computers&amp;f=gpu_vendor&amp;v=Technical&amp;p=0'"><path d=" M 386.0151,237.0500 L 386.0151,203.4500 L 463.8351,203.4500 L 463.8351,237.0500 L 386.0151,237.0500 z " style="fill: #ffffff; fill-opacity: 0.00; stroke: none;" id="ezcGraphPolygon_43"/><text id="ezcGraphTextBox_30_text" x="386.5151" text-length="76.3200px" y="217.5500" style="font-size: 16px; font-family: 'Arial'; fill: #2e3436; fill-opacity: 1.00; stroke: none;">Technical</text><text id="ezcGraphTextBox_30_text" x="386.5151" text-length="50.8800px" y="235.1500" style="font-size: 16px; font-family: 'Arial'; fill: #2e3436; fill-opacity: 1.00; stroke: none;">(0.9%)</text></g><g id="ezcGraphTextBox_34" style=" cursor: pointer;" onclick="top.location = 'https://linux-hardware.org/?view=computers&amp;f=gpu_vendor&amp;v=Microsoft&amp;p=0'"><path d=" M 384.1744,272.0500 L 384.1744,238.4500 L 461.9944,238.4500 L 461.9944,272.0500 L 384.1744,272.0500 z " style="fill: #ffffff; fill-opacity: 0.00; stroke: none;" id="ezcGraphPolygon_44"/><text id="ezcGraphTextBox_34_text" x="384.6744" text-length="76.3200px" y="252.5500" style="font-size: 16px; font-family: 'Arial'; fill: #2e3436; fill-opacity: 1.00; stroke: none;">Microsoft</text><text id="ezcGraphTextBox_34_text" x="384.6744" text-length="50.8800px" y="270.1500" style="font-size: 16px; font-family: 'Arial'; fill: #2e3436; fill-opacity: 1.00; stroke: none;">(0.9%)</text></g><g id="ezcGraphTextBox_38"><path d=" M 371.6998,299.0000 L 371.6998,281.5000 L 483.4398,281.5000 L 483.4398,299.0000 L 371.6998,299.0000 z " style="fill: #ffffff; fill-opacity: 0.00; stroke: none;" id="ezcGraphPolygon_45"/><text id="ezcGraphTextBox_38_text" x="372.1998" text-length="110.2400px" y="295.6000" style="font-size: 16px; font-family: 'Arial'; fill: #2e3436; fill-opacity: 1.00; stroke: none;">Others (0.1%)</text></g></g></svg>
