<?xml version="1.0"?>
<svg xmlns="http://www.w3.org/2000/svg" width="500" height="420" version="1.0" id="ezcGraph"><defs/><g id="ezcGraphChart" color-rendering="optimizeQuality" shape-rendering="geometricPrecision" text-rendering="optimizeLegibility"><path d=" M 0.0000,420.0000 L 0.0000,0.0000 L 500.0000,0.0000 L 500.0000,420.0000 L 0.0000,420.0000 z " style="fill: #eeeeec; fill-opacity: 1.00; stroke: none;" id="ezcGraphPolygon_1"/><path d=" M 0.0000,42.0000 L 0.0000,0.0000 L 500.0000,0.0000 L 500.0000,42.0000 L 0.0000,42.0000 z " style="fill: #000000; fill-opacity: 0.00; stroke: none;" id="ezcGraphPolygon_2"/><path d="M 243.28,241.54 L 355.78,241.54 A 112.50,112.50 0 1,1 195.79,139.56 z" style="fill: #3465a4; fill-opacity: 1.00; stroke: none; cursor: pointer;" id="ezcGraphCircleSector_4" onclick="top.location = 'https://linux-hardware.org/?view=computers&amp;f=snd_model&amp;v=Intel+82801AA+AC%2797+Audio+Controller&amp;p=0'"/><path d="M 242.96,242.04 L 355.28,242.04 A 112.00,112.00 0 1,1 195.54,140.22 z" style="fill: none; stroke: #1a3352; stroke-width: 1; stroke-opacity: 1.00; stroke-linecap: round; stroke-linejoin: round;" id="ezcGraphCircleSector_5"/><path d="M 250.00,231.00 L 202.51,129.02 A 112.50,112.50 0 0,1 321.72,144.32 z" style="fill: #4e9a06; fill-opacity: 1.00; stroke: none; cursor: pointer;" id="ezcGraphCircleSector_6" onclick="top.location = 'https://linux-hardware.org/?view=computers&amp;f=snd_model&amp;v=Ensoniq+ES1371%2FES1373+%2F+Creative+Labs+CT2518&amp;p=0'"/><path d="M 250.12,230.07 L 203.17,129.26 A 112.00,112.00 0 0,1 321.01,144.39 z" style="fill: none; stroke: #274d03; stroke-width: 1; stroke-opacity: 1.00; stroke-linecap: round; stroke-linejoin: round;" id="ezcGraphCircleSector_7"/><path d="M 250.00,231.00 L 321.72,144.32 A 112.50,112.50 0 0,1 359.43,204.90 z" style="fill: #cc0000; fill-opacity: 1.00; stroke: none; cursor: pointer;" id="ezcGraphCircleSector_8" onclick="top.location = 'https://linux-hardware.org/?view=computers&amp;f=snd_model&amp;v=Intel+82801FB%2FFBM%2FFR%2FFW%2FFRW+%28ICH6+Family%29+High+Definition+Audio+Controller&amp;p=0'"/><path d="M 251.34,230.17 L 321.78,145.03 A 112.00,112.00 0 0,1 358.83,204.53 z" style="fill: none; stroke: #660000; stroke-width: 1; stroke-opacity: 1.00; stroke-linecap: round; stroke-linejoin: round;" id="ezcGraphCircleSector_9"/><path d="M 250.00,231.00 L 359.43,204.90 A 112.50,112.50 0 0,1 362.35,225.27 z" style="fill: #edd400; fill-opacity: 1.00; stroke: none; cursor: pointer;" id="ezcGraphCircleSector_10" onclick="top.location = 'https://linux-hardware.org/?view=computers&amp;f=snd_model&amp;v=Intel+82801I+%28ICH9+Family%29+HD+Audio+Controller&amp;p=0'"/><path d="M 255.41,230.22 L 359.06,205.50 A 112.00,112.00 0 0,1 361.83,224.80 z" style="fill: none; stroke: #776a00; stroke-width: 1; stroke-opacity: 1.00; stroke-linecap: round; stroke-linejoin: round;" id="ezcGraphCircleSector_11"/><path d="M 250.00,231.00 L 362.35,225.27 A 112.50,112.50 0 0,1 362.49,229.64 z" style="fill: #75505b; fill-opacity: 1.00; stroke: none; cursor: pointer;" id="ezcGraphCircleSector_12" onclick="top.location = 'https://linux-hardware.org/?view=computers&amp;f=snd_model&amp;v=Intel+82801BA%2FBAM+AC%2797+Audio+Controller&amp;p=0'"/><path d="M 275.75,230.19 L 361.88,225.79 A 112.00,112.00 0 0,1 361.99,229.14 z" style="fill: none; stroke: #3b282e; stroke-width: 1; stroke-opacity: 1.00; stroke-linecap: round; stroke-linejoin: round;" id="ezcGraphCircleSector_13"/><path d="M 250.00,231.00 L 362.49,229.64 A 112.50,112.50 0 0,1 362.50,231.00 z" style="fill: #f57900; fill-opacity: 1.00; stroke: none;" id="ezcGraphCircleSector_14"/><path d="M 332.43,230.50 L 362.00,230.14 A 112.00,112.00 0 0,1 362.00,230.50 z" style="fill: none; stroke: #7b3d00; stroke-width: 1; stroke-opacity: 1.00; stroke-linecap: round; stroke-linejoin: round;" id="ezcGraphCircleSector_15"/><path d=" M 198.4890,311.8124 L 195.0102,346.0000" style="fill: none; stroke: #000000; stroke-width: 1; stroke-opacity: 1.00; stroke-linecap: round; stroke-linejoin: round;" id="ezcGraphLine_16"/><ellipse cx="198.4890" cy="311.8124" rx="3.0000" ry="3.0000" style="fill: #000000; fill-opacity: 1.00; stroke: none;" id="ezcGraphCircle_17"/><ellipse cx="195.0102" cy="346.0000" rx="3.0000" ry="3.0000" style="fill: #000000; fill-opacity: 1.00; stroke: none;" id="ezcGraphCircle_18"/><path d=" M 260.6119,148.3451 L 271.7797,107.0000" style="fill: none; stroke: #000000; stroke-width: 1; stroke-opacity: 1.00; stroke-linecap: round; stroke-linejoin: round;" id="ezcGraphLine_20"/><ellipse cx="260.6119" cy="148.3451" rx="3.0000" ry="3.0000" style="fill: #000000; fill-opacity: 1.00; stroke: none;" id="ezcGraphCircle_21"/><ellipse cx="271.7797" cy="107.0000" rx="3.0000" ry="3.0000" style="fill: #000000; fill-opacity: 1.00; stroke: none;" id="ezcGraphCircle_22"/><path d=" M 320.7432,186.9563 L 361.5272,164.0000" style="fill: none; stroke: #000000; stroke-width: 1; stroke-opacity: 1.00; stroke-linecap: round; stroke-linejoin: round;" id="ezcGraphLine_24"/><ellipse cx="320.7432" cy="186.9563" rx="3.0000" ry="3.0000" style="fill: #000000; fill-opacity: 1.00; stroke: none;" id="ezcGraphCircle_25"/><ellipse cx="361.5272" cy="164.0000" rx="3.0000" ry="3.0000" style="fill: #000000; fill-opacity: 1.00; stroke: none;" id="ezcGraphCircle_26"/><path d=" M 332.4881,219.1609 L 379.6972,213.0000" style="fill: none; stroke: #000000; stroke-width: 1; stroke-opacity: 1.00; stroke-linecap: round; stroke-linejoin: round;" id="ezcGraphLine_28"/><ellipse cx="332.4881" cy="219.1609" rx="3.0000" ry="3.0000" style="fill: #000000; fill-opacity: 1.00; stroke: none;" id="ezcGraphCircle_29"/><ellipse cx="379.6972" cy="213.0000" rx="3.0000" ry="3.0000" style="fill: #000000; fill-opacity: 1.00; stroke: none;" id="ezcGraphCircle_30"/><path d=" M 333.2919,228.3718 L 379.8386,248.0000" style="fill: none; stroke: #000000; stroke-width: 1; stroke-opacity: 1.00; stroke-linecap: round; stroke-linejoin: round;" id="ezcGraphLine_32"/><ellipse cx="333.2919" cy="228.3718" rx="3.0000" ry="3.0000" style="fill: #000000; fill-opacity: 1.00; stroke: none;" id="ezcGraphCircle_33"/><ellipse cx="379.8386" cy="248.0000" rx="3.0000" ry="3.0000" style="fill: #000000; fill-opacity: 1.00; stroke: none;" id="ezcGraphCircle_34"/><path d=" M 333.3318,230.4945 L 369.6706,283.0000" style="fill: none; stroke: #000000; stroke-width: 1; stroke-opacity: 1.00; stroke-linecap: round; stroke-linejoin: round;" id="ezcGraphLine_36"/><ellipse cx="333.3318" cy="230.4945" rx="3.0000" ry="3.0000" style="fill: #000000; fill-opacity: 1.00; stroke: none;" id="ezcGraphCircle_37"/><ellipse cx="369.6706" cy="283.0000" rx="3.0000" ry="3.0000" style="fill: #000000; fill-opacity: 1.00; stroke: none;" id="ezcGraphCircle_38"/><g id="ezcGraphTextBox_3"><path d=" M 132.9000,42.0000 L 132.9000,0.5000 L 367.6000,0.5000 L 367.6000,42.0000 L 132.9000,42.0000 z " style="fill: #ffffff; fill-opacity: 0.00; stroke: none;" id="ezcGraphPolygon_40"/><text id="ezcGraphTextBox_3_text" x="133.4000" text-length="233.2000px" y="35.0000" style="font-size: 40px; font-family: 'Arial'; fill: #2e3436; fill-opacity: 1.00; stroke: none;">Sound Model</text></g><g id="ezcGraphTextBox_19" style=" cursor: pointer;" onclick="top.location = 'https://linux-hardware.org/?view=computers&amp;f=snd_model&amp;v=Intel+82801AA+AC%2797+Audio+Controller&amp;p=0'"><path d=" M 61.3102,362.0500 L 61.3102,330.4500 L 190.0102,330.4500 L 190.0102,362.0500 L 61.3102,362.0500 z " style="fill: #ffffff; fill-opacity: 0.00; stroke: none;" id="ezcGraphPolygon_41"/><text id="ezcGraphTextBox_19_text" x="61.8102" text-length="127.2000px" y="343.7000" style="font-size: 15px; font-family: 'Arial'; fill: #2e3436; fill-opacity: 1.00; stroke: none;">82801AA AC'97...</text><text id="ezcGraphTextBox_19_text" x="133.3602" text-length="55.6500px" y="360.2000" style="font-size: 15px; font-family: 'Arial'; fill: #2e3436; fill-opacity: 1.00; stroke: none;">(68.1%)</text></g><g id="ezcGraphTextBox_23" style=" cursor: pointer;" onclick="top.location = 'https://linux-hardware.org/?view=computers&amp;f=snd_model&amp;v=Ensoniq+ES1371%2FES1373+%2F+Creative+Labs+CT2518&amp;p=0'"><path d=" M 277.2797,115.5000 L 277.2797,99.0000 L 469.5797,99.0000 L 469.5797,115.5000 L 277.2797,115.5000 z " style="fill: #ffffff; fill-opacity: 0.00; stroke: none;" id="ezcGraphPolygon_42"/><text id="ezcGraphTextBox_23_text" x="277.7797" text-length="190.8000px" y="112.2500" style="font-size: 15px; font-family: 'Arial'; fill: #2e3436; fill-opacity: 1.00; stroke: none;">ES1371/ES1373... (17.9%)</text></g><g id="ezcGraphTextBox_27" style=" cursor: pointer;" onclick="top.location = 'https://linux-hardware.org/?view=computers&amp;f=snd_model&amp;v=Intel+82801FB%2FFBM%2FFR%2FFW%2FFRW+%28ICH6+Family%29+High+Definition+Audio+Controller&amp;p=0'"><path d=" M 367.0272,180.0500 L 367.0272,148.4500 L 495.7272,148.4500 L 495.7272,180.0500 L 367.0272,180.0500 z " style="fill: #ffffff; fill-opacity: 0.00; stroke: none;" id="ezcGraphPolygon_43"/><text id="ezcGraphTextBox_27_text" x="367.5272" text-length="127.2000px" y="161.7000" style="font-size: 15px; font-family: 'Arial'; fill: #2e3436; fill-opacity: 1.00; stroke: none;">82801FB/FBM/F...</text><text id="ezcGraphTextBox_27_text" x="367.5272" text-length="55.6500px" y="178.2000" style="font-size: 15px; font-family: 'Arial'; fill: #2e3436; fill-opacity: 1.00; stroke: none;">(10.3%)</text></g><g id="ezcGraphTextBox_31" style=" cursor: pointer;" onclick="top.location = 'https://linux-hardware.org/?view=computers&amp;f=snd_model&amp;v=Intel+82801I+%28ICH9+Family%29+HD+Audio+Controller&amp;p=0'"><path d=" M 385.1972,229.0500 L 385.1972,197.4500 L 482.0972,197.4500 L 482.0972,229.0500 L 385.1972,229.0500 z " style="fill: #ffffff; fill-opacity: 0.00; stroke: none;" id="ezcGraphPolygon_44"/><text id="ezcGraphTextBox_31_text" x="385.6972" text-length="95.4000px" y="210.7000" style="font-size: 15px; font-family: 'Arial'; fill: #2e3436; fill-opacity: 1.00; stroke: none;">82801I (ICH9</text><text id="ezcGraphTextBox_31_text" x="385.6972" text-length="79.5000px" y="227.2000" style="font-size: 15px; font-family: 'Arial'; fill: #2e3436; fill-opacity: 1.00; stroke: none;">... (2.9%)</text></g><g id="ezcGraphTextBox_35" style=" cursor: pointer;" onclick="top.location = 'https://linux-hardware.org/?view=computers&amp;f=snd_model&amp;v=Intel+82801BA%2FBAM+AC%2797+Audio+Controller&amp;p=0'"><path d=" M 385.3386,264.0500 L 385.3386,232.4500 L 474.2886,232.4500 L 474.2886,264.0500 L 385.3386,264.0500 z " style="fill: #ffffff; fill-opacity: 0.00; stroke: none;" id="ezcGraphPolygon_45"/><text id="ezcGraphTextBox_35_text" x="385.8386" text-length="87.4500px" y="245.7000" style="font-size: 15px; font-family: 'Arial'; fill: #2e3436; fill-opacity: 1.00; stroke: none;">82801BA/BAM</text><text id="ezcGraphTextBox_35_text" x="385.8386" text-length="87.4500px" y="262.2000" style="font-size: 15px; font-family: 'Arial'; fill: #2e3436; fill-opacity: 1.00; stroke: none;">A... (0.6%)</text></g><g id="ezcGraphTextBox_39"><path d=" M 375.1706,291.5000 L 375.1706,275.0000 L 480.0206,275.0000 L 480.0206,291.5000 L 375.1706,291.5000 z " style="fill: #ffffff; fill-opacity: 0.00; stroke: none;" id="ezcGraphPolygon_46"/><text id="ezcGraphTextBox_39_text" x="375.6706" text-length="103.3500px" y="288.2500" style="font-size: 15px; font-family: 'Arial'; fill: #2e3436; fill-opacity: 1.00; stroke: none;">Others (0.2%)</text></g></g></svg>
