<?xml version="1.0"?>
<svg xmlns="http://www.w3.org/2000/svg" width="500" height="420" version="1.0" id="ezcGraph"><defs/><g id="ezcGraphChart" color-rendering="optimizeQuality" shape-rendering="geometricPrecision" text-rendering="optimizeLegibility"><path d=" M 0.0000,420.0000 L 0.0000,0.0000 L 500.0000,0.0000 L 500.0000,420.0000 L 0.0000,420.0000 z " style="fill: #eeeeec; fill-opacity: 1.00; stroke: none;" id="ezcGraphPolygon_1"/><path d=" M 0.0000,42.0000 L 0.0000,0.0000 L 500.0000,0.0000 L 500.0000,42.0000 L 0.0000,42.0000 z " style="fill: #000000; fill-opacity: 0.00; stroke: none;" id="ezcGraphPolygon_2"/><path d="M 249.07,243.47 L 361.57,243.47 A 112.50,112.50 0 1,1 137.82,226.70 z" style="fill: #3465a4; fill-opacity: 1.00; stroke: none; cursor: pointer;" id="ezcGraphCircleSector_4" onclick="top.location = 'https://linux-hardware.org/?view=computers&amp;f=mon_resolution&amp;v=1920x1080&amp;p=0'"/><path d="M 249.03,243.97 L 361.07,243.97 A 112.00,112.00 0 1,1 138.24,227.27 z" style="fill: none; stroke: #1a3352; stroke-width: 1; stroke-opacity: 1.00; stroke-linecap: round; stroke-linejoin: round;" id="ezcGraphCircleSector_5"/><path d="M 250.00,231.00 L 138.76,214.23 A 112.50,112.50 0 0,1 357.50,197.84 z" style="fill: #4e9a06; fill-opacity: 1.00; stroke: none; cursor: pointer;" id="ezcGraphCircleSector_6" onclick="top.location = 'https://linux-hardware.org/?view=computers&amp;f=mon_resolution&amp;v=2560x1440&amp;p=0'"/><path d="M 249.96,230.49 L 139.33,213.81 A 112.00,112.00 0 0,1 356.88,197.51 z" style="fill: none; stroke: #274d03; stroke-width: 1; stroke-opacity: 1.00; stroke-linecap: round; stroke-linejoin: round;" id="ezcGraphCircleSector_7"/><path d="M 250.00,231.00 L 357.50,197.84 A 112.50,112.50 0 0,1 361.24,214.23 z" style="fill: #cc0000; fill-opacity: 1.00; stroke: none; cursor: pointer;" id="ezcGraphCircleSector_8" onclick="top.location = 'https://linux-hardware.org/?view=computers&amp;f=mon_resolution&amp;v=3196x1798&amp;p=0'"/><path d="M 256.52,229.51 L 357.17,198.47 A 112.00,112.00 0 0,1 360.67,213.81 z" style="fill: none; stroke: #660000; stroke-width: 1; stroke-opacity: 1.00; stroke-linecap: round; stroke-linejoin: round;" id="ezcGraphCircleSector_9"/><path d="M 250.00,231.00 L 361.24,214.23 A 112.50,112.50 0 0,1 362.50,231.00 z" style="fill: #edd400; fill-opacity: 1.00; stroke: none; cursor: pointer;" id="ezcGraphCircleSector_10" onclick="top.location = 'https://linux-hardware.org/?view=computers&amp;f=mon_resolution&amp;v=2048x1152&amp;p=0'"/><path d="M 256.67,230.50 L 360.82,214.80 A 112.00,112.00 0 0,1 362.00,230.50 z" style="fill: none; stroke: #776a00; stroke-width: 1; stroke-opacity: 1.00; stroke-linecap: round; stroke-linejoin: round;" id="ezcGraphCircleSector_11"/><path d=" M 243.7725,147.8997 L 244.0000,106.0000" style="fill: none; stroke: #000000; stroke-width: 1; stroke-opacity: 1.00; stroke-linecap: round; stroke-linejoin: round;" id="ezcGraphLine_12"/><ellipse cx="243.7725" cy="147.8997" rx="3.0000" ry="3.0000" style="fill: #000000; fill-opacity: 1.00; stroke: none;" id="ezcGraphCircle_13"/><ellipse cx="244.0000" cy="106.0000" rx="3.0000" ry="3.0000" style="fill: #000000; fill-opacity: 1.00; stroke: none;" id="ezcGraphCircle_14"/><path d=" M 242.8384,326.5654 L 242.8384,368.0000" style="fill: none; stroke: #000000; stroke-width: 1; stroke-opacity: 1.00; stroke-linecap: round; stroke-linejoin: round;" id="ezcGraphLine_16"/><ellipse cx="242.8384" cy="326.5654" rx="3.0000" ry="3.0000" style="fill: #000000; fill-opacity: 1.00; stroke: none;" id="ezcGraphCircle_17"/><ellipse cx="242.8384" cy="368.0000" rx="3.0000" ry="3.0000" style="fill: #000000; fill-opacity: 1.00; stroke: none;" id="ezcGraphCircle_18"/><path d=" M 331.2440,212.4566 L 377.8236,203.0000" style="fill: none; stroke: #000000; stroke-width: 1; stroke-opacity: 1.00; stroke-linecap: round; stroke-linejoin: round;" id="ezcGraphLine_20"/><ellipse cx="331.2440" cy="212.4566" rx="3.0000" ry="3.0000" style="fill: #000000; fill-opacity: 1.00; stroke: none;" id="ezcGraphCircle_21"/><ellipse cx="377.8236" cy="203.0000" rx="3.0000" ry="3.0000" style="fill: #000000; fill-opacity: 1.00; stroke: none;" id="ezcGraphCircle_22"/><path d=" M 333.1003,224.7725 L 380.6152,240.8000" style="fill: none; stroke: #000000; stroke-width: 1; stroke-opacity: 1.00; stroke-linecap: round; stroke-linejoin: round;" id="ezcGraphLine_24"/><ellipse cx="333.1003" cy="224.7725" rx="3.0000" ry="3.0000" style="fill: #000000; fill-opacity: 1.00; stroke: none;" id="ezcGraphCircle_25"/><ellipse cx="380.6152" cy="240.8000" rx="3.0000" ry="3.0000" style="fill: #000000; fill-opacity: 1.00; stroke: none;" id="ezcGraphCircle_26"/><g id="ezcGraphTextBox_3"><path d=" M 58.7000,42.0000 L 58.7000,0.5000 L 441.8000,0.5000 L 441.8000,42.0000 L 58.7000,42.0000 z " style="fill: #ffffff; fill-opacity: 0.00; stroke: none;" id="ezcGraphPolygon_28"/><text id="ezcGraphTextBox_3_text" x="59.2000" text-length="381.6000px" y="35.0000" style="font-size: 40px; font-family: 'Arial'; fill: #2e3436; fill-opacity: 1.00; stroke: none;">Monitor Resolution</text></g><g id="ezcGraphTextBox_15" style=" cursor: pointer;" onclick="top.location = 'https://linux-hardware.org/?view=computers&amp;f=mon_resolution&amp;v=2560x1440&amp;p=0'"><path d=" M 18.0800,116.0000 L 18.0800,96.5000 L 239.0000,96.5000 L 239.0000,116.0000 L 18.0800,116.0000 z " style="fill: #ffffff; fill-opacity: 0.00; stroke: none;" id="ezcGraphPolygon_29"/><text id="ezcGraphTextBox_15_text" x="18.5800" text-length="219.4200px" y="112.3000" style="font-size: 18px; font-family: 'Arial'; fill: #2e3436; fill-opacity: 1.00; stroke: none;">2560x1440 (QHD) (42.9%)</text></g><g id="ezcGraphTextBox_19" style=" cursor: pointer;" onclick="top.location = 'https://linux-hardware.org/?view=computers&amp;f=mon_resolution&amp;v=1920x1080&amp;p=0'"><path d=" M 16.9184,378.0000 L 16.9184,358.5000 L 237.8384,358.5000 L 237.8384,378.0000 L 16.9184,378.0000 z " style="fill: #ffffff; fill-opacity: 0.00; stroke: none;" id="ezcGraphPolygon_30"/><text id="ezcGraphTextBox_19_text" x="17.4184" text-length="219.4200px" y="374.3000" style="font-size: 18px; font-family: 'Arial'; fill: #2e3436; fill-opacity: 1.00; stroke: none;">1920x1080 (FHD) (52.4%)</text></g><g id="ezcGraphTextBox_23" style=" cursor: pointer;" onclick="top.location = 'https://linux-hardware.org/?view=computers&amp;f=mon_resolution&amp;v=3196x1798&amp;p=0'"><path d=" M 383.3236,222.0500 L 383.3236,184.4500 L 470.6836,184.4500 L 470.6836,222.0500 L 383.3236,222.0500 z " style="fill: #ffffff; fill-opacity: 0.00; stroke: none;" id="ezcGraphPolygon_31"/><text id="ezcGraphTextBox_23_text" x="383.8236" text-length="85.8600px" y="200.2500" style="font-size: 18px; font-family: 'Arial'; fill: #2e3436; fill-opacity: 1.00; stroke: none;">3196x1798</text><text id="ezcGraphTextBox_23_text" x="383.8236" text-length="57.2400px" y="220.0500" style="font-size: 18px; font-family: 'Arial'; fill: #2e3436; fill-opacity: 1.00; stroke: none;">(2.4%)</text></g><g id="ezcGraphTextBox_27" style=" cursor: pointer;" onclick="top.location = 'https://linux-hardware.org/?view=computers&amp;f=mon_resolution&amp;v=2048x1152&amp;p=0'"><path d=" M 386.1152,259.8500 L 386.1152,222.2500 L 473.4752,222.2500 L 473.4752,259.8500 L 386.1152,259.8500 z " style="fill: #ffffff; fill-opacity: 0.00; stroke: none;" id="ezcGraphPolygon_32"/><text id="ezcGraphTextBox_27_text" x="386.6152" text-length="85.8600px" y="238.0500" style="font-size: 18px; font-family: 'Arial'; fill: #2e3436; fill-opacity: 1.00; stroke: none;">2048x1152</text><text id="ezcGraphTextBox_27_text" x="386.6152" text-length="57.2400px" y="257.8500" style="font-size: 18px; font-family: 'Arial'; fill: #2e3436; fill-opacity: 1.00; stroke: none;">(2.4%)</text></g></g></svg>
