<?xml version="1.0"?>
<svg xmlns="http://www.w3.org/2000/svg" width="500" height="420" version="1.0" id="ezcGraph"><defs/><g id="ezcGraphChart" color-rendering="optimizeQuality" shape-rendering="geometricPrecision" text-rendering="optimizeLegibility"><path d=" M 0.0000,420.0000 L 0.0000,0.0000 L 500.0000,0.0000 L 500.0000,420.0000 L 0.0000,420.0000 z " style="fill: #eeeeec; fill-opacity: 1.00; stroke: none;" id="ezcGraphPolygon_1"/><path d=" M 0.0000,42.0000 L 0.0000,0.0000 L 500.0000,0.0000 L 500.0000,42.0000 L 0.0000,42.0000 z " style="fill: #000000; fill-opacity: 0.00; stroke: none;" id="ezcGraphPolygon_2"/><path d="M 255.24,242.35 L 367.74,242.35 A 112.50,112.50 0 0,1 182.27,327.98 z" style="fill: #3465a4; fill-opacity: 1.00; stroke: none; cursor: pointer;" id="ezcGraphCircleSector_4" onclick="top.location = 'https://linux-hardware.org/?view=computers&amp;f=node_model_family&amp;v=Oracle+VirtualBox&amp;p=0'"/><path d="M 255.47,242.85 L 367.24,242.85 A 112.00,112.00 0 0,1 182.98,327.92 z" style="fill: none; stroke: #1a3352; stroke-width: 1; stroke-opacity: 1.00; stroke-linecap: round; stroke-linejoin: round;" id="ezcGraphCircleSector_5"/><path d="M 250.00,231.00 L 177.03,316.63 A 112.50,112.50 0 0,1 146.81,186.18 z" style="fill: #4e9a06; fill-opacity: 1.00; stroke: none; cursor: pointer;" id="ezcGraphCircleSector_6" onclick="top.location = 'https://linux-hardware.org/?view=computers&amp;f=node_model_family&amp;v=QEMU+Standard&amp;p=0'"/><path d="M 249.18,231.19 L 176.98,315.92 A 112.00,112.00 0 0,1 147.07,186.84 z" style="fill: none; stroke: #274d03; stroke-width: 1; stroke-opacity: 1.00; stroke-linecap: round; stroke-linejoin: round;" id="ezcGraphCircleSector_7"/><path d="M 250.00,231.00 L 146.81,186.18 A 112.50,112.50 0 0,1 252.56,118.53 z" style="fill: #cc0000; fill-opacity: 1.00; stroke: none; cursor: pointer;" id="ezcGraphCircleSector_8" onclick="top.location = 'https://linux-hardware.org/?view=computers&amp;f=node_model_family&amp;v=VMware+VMware7&amp;p=0'"/><path d="M 249.52,230.25 L 147.47,185.92 A 112.00,112.00 0 0,1 252.05,119.02 z" style="fill: none; stroke: #660000; stroke-width: 1; stroke-opacity: 1.00; stroke-linecap: round; stroke-linejoin: round;" id="ezcGraphCircleSector_9"/><path d="M 250.00,231.00 L 252.56,118.53 A 112.50,112.50 0 0,1 310.63,136.23 z" style="fill: #edd400; fill-opacity: 1.00; stroke: none; cursor: pointer;" id="ezcGraphCircleSector_10" onclick="top.location = 'https://linux-hardware.org/?view=computers&amp;f=node_model_family&amp;v=VMware+Virtual&amp;p=0'"/><path d="M 250.54,229.23 L 253.05,119.04 A 112.00,112.00 0 0,1 309.94,136.39 z" style="fill: none; stroke: #776a00; stroke-width: 1; stroke-opacity: 1.00; stroke-linecap: round; stroke-linejoin: round;" id="ezcGraphCircleSector_11"/><path d="M 250.00,231.00 L 310.63,136.23 A 112.50,112.50 0 0,1 346.12,172.55 z" style="fill: #75505b; fill-opacity: 1.00; stroke: none; cursor: pointer;" id="ezcGraphCircleSector_12" onclick="top.location = 'https://linux-hardware.org/?view=computers&amp;f=node_model_family&amp;v=&amp;p=0'"/><path d="M 251.58,229.45 L 310.78,136.92 A 112.00,112.00 0 0,1 345.44,172.38 z" style="fill: none; stroke: #3b282e; stroke-width: 1; stroke-opacity: 1.00; stroke-linecap: round; stroke-linejoin: round;" id="ezcGraphCircleSector_13"/><path d="M 250.00,231.00 L 346.12,172.55 A 112.50,112.50 0 0,1 362.50,231.00 z" style="fill: #f57900; fill-opacity: 1.00; stroke: none;" id="ezcGraphCircleSector_14"/><path d="M 251.78,230.50 L 345.95,173.23 A 112.00,112.00 0 0,1 362.00,230.50 z" style="fill: none; stroke: #7b3d00; stroke-width: 1; stroke-opacity: 1.00; stroke-linecap: round; stroke-linejoin: round;" id="ezcGraphCircleSector_15"/><path d=" M 205.0918,160.8024 L 177.7505,125.0000" style="fill: none; stroke: #000000; stroke-width: 1; stroke-opacity: 1.00; stroke-linecap: round; stroke-linejoin: round;" id="ezcGraphLine_16"/><ellipse cx="205.0918" cy="160.8024" rx="3.0000" ry="3.0000" style="fill: #000000; fill-opacity: 1.00; stroke: none;" id="ezcGraphCircle_17"/><ellipse cx="177.7505" cy="125.0000" rx="3.0000" ry="3.0000" style="fill: #000000; fill-opacity: 1.00; stroke: none;" id="ezcGraphCircle_18"/><path d=" M 168.8167,249.8075 L 122.1764,259.0000" style="fill: none; stroke: #000000; stroke-width: 1; stroke-opacity: 1.00; stroke-linecap: round; stroke-linejoin: round;" id="ezcGraphLine_20"/><ellipse cx="168.8167" cy="249.8075" rx="3.0000" ry="3.0000" style="fill: #000000; fill-opacity: 1.00; stroke: none;" id="ezcGraphCircle_21"/><ellipse cx="122.1764" cy="259.0000" rx="3.0000" ry="3.0000" style="fill: #000000; fill-opacity: 1.00; stroke: none;" id="ezcGraphCircle_22"/><path d=" M 274.3038,151.2895 L 291.0000,111.0000" style="fill: none; stroke: #000000; stroke-width: 1; stroke-opacity: 1.00; stroke-linecap: round; stroke-linejoin: round;" id="ezcGraphLine_24"/><ellipse cx="274.3038" cy="151.2895" rx="3.0000" ry="3.0000" style="fill: #000000; fill-opacity: 1.00; stroke: none;" id="ezcGraphCircle_25"/><ellipse cx="291.0000" cy="111.0000" rx="3.0000" ry="3.0000" style="fill: #000000; fill-opacity: 1.00; stroke: none;" id="ezcGraphCircle_26"/><path d=" M 309.5925,172.7490 L 349.9082,148.5000" style="fill: none; stroke: #000000; stroke-width: 1; stroke-opacity: 1.00; stroke-linecap: round; stroke-linejoin: round;" id="ezcGraphLine_28"/><ellipse cx="309.5925" cy="172.7490" rx="3.0000" ry="3.0000" style="fill: #000000; fill-opacity: 1.00; stroke: none;" id="ezcGraphCircle_29"/><ellipse cx="349.9082" cy="148.5000" rx="3.0000" ry="3.0000" style="fill: #000000; fill-opacity: 1.00; stroke: none;" id="ezcGraphCircle_30"/><path d=" M 330.2431,208.5169 L 376.2872,197.0000" style="fill: none; stroke: #000000; stroke-width: 1; stroke-opacity: 1.00; stroke-linecap: round; stroke-linejoin: round;" id="ezcGraphLine_32"/><ellipse cx="330.2431" cy="208.5169" rx="3.0000" ry="3.0000" style="fill: #000000; fill-opacity: 1.00; stroke: none;" id="ezcGraphCircle_33"/><ellipse cx="376.2872" cy="197.0000" rx="3.0000" ry="3.0000" style="fill: #000000; fill-opacity: 1.00; stroke: none;" id="ezcGraphCircle_34"/><path d=" M 290.1711,318.0075 L 271.7797,355.0000" style="fill: none; stroke: #000000; stroke-width: 1; stroke-opacity: 1.00; stroke-linecap: round; stroke-linejoin: round;" id="ezcGraphLine_36"/><ellipse cx="290.1711" cy="318.0075" rx="3.0000" ry="3.0000" style="fill: #000000; fill-opacity: 1.00; stroke: none;" id="ezcGraphCircle_37"/><ellipse cx="271.7797" cy="355.0000" rx="3.0000" ry="3.0000" style="fill: #000000; fill-opacity: 1.00; stroke: none;" id="ezcGraphCircle_38"/><g id="ezcGraphTextBox_3"><path d=" M 122.3000,42.0000 L 122.3000,0.5000 L 378.2000,0.5000 L 378.2000,42.0000 L 122.3000,42.0000 z " style="fill: #ffffff; fill-opacity: 0.00; stroke: none;" id="ezcGraphPolygon_40"/><text id="ezcGraphTextBox_3_text" x="122.8000" text-length="254.4000px" y="35.0000" style="font-size: 40px; font-family: 'Arial'; fill: #2e3436; fill-opacity: 1.00; stroke: none;">Model Family</text></g><g id="ezcGraphTextBox_19" style=" cursor: pointer;" onclick="top.location = 'https://linux-hardware.org/?view=computers&amp;f=node_model_family&amp;v=VMware+VMware7&amp;p=0'"><path d=" M 48.8205,142.5500 L 48.8205,107.9500 L 172.7505,107.9500 L 172.7505,142.5500 L 48.8205,142.5500 z " style="fill: #ffffff; fill-opacity: 0.00; stroke: none;" id="ezcGraphPolygon_41"/><text id="ezcGraphTextBox_19_text" x="49.3205" text-length="122.4300px" y="122.4750" style="font-size: 16px; font-family: 'Arial'; fill: #2e3436; fill-opacity: 1.00; stroke: none;">VMware VMware7</text><text id="ezcGraphTextBox_19_text" x="110.5355" text-length="61.2150px" y="140.6250" style="font-size: 16px; font-family: 'Arial'; fill: #2e3436; fill-opacity: 1.00; stroke: none;">(18.8%)</text></g><g id="ezcGraphTextBox_23" style=" cursor: pointer;" onclick="top.location = 'https://linux-hardware.org/?view=computers&amp;f=node_model_family&amp;v=QEMU+Standard&amp;p=0'"><path d=" M 1.9914,276.5500 L 1.9914,241.9500 L 117.1764,241.9500 L 117.1764,276.5500 L 1.9914,276.5500 z " style="fill: #ffffff; fill-opacity: 0.00; stroke: none;" id="ezcGraphPolygon_42"/><text id="ezcGraphTextBox_23_text" x="2.4914" text-length="113.6850px" y="256.4750" style="font-size: 16px; font-family: 'Arial'; fill: #2e3436; fill-opacity: 1.00; stroke: none;">QEMU Standard</text><text id="ezcGraphTextBox_23_text" x="54.9614" text-length="61.2150px" y="274.6250" style="font-size: 16px; font-family: 'Arial'; fill: #2e3436; fill-opacity: 1.00; stroke: none;">(20.3%)</text></g><g id="ezcGraphTextBox_27" style=" cursor: pointer;" onclick="top.location = 'https://linux-hardware.org/?view=computers&amp;f=node_model_family&amp;v=VMware+Virtual&amp;p=0'"><path d=" M 296.5000,120.2500 L 296.5000,102.2500 L 481.6450,102.2500 L 481.6450,120.2500 L 296.5000,120.2500 z " style="fill: #ffffff; fill-opacity: 0.00; stroke: none;" id="ezcGraphPolygon_43"/><text id="ezcGraphTextBox_27_text" x="297.0000" text-length="183.6450px" y="116.7750" style="font-size: 16px; font-family: 'Arial'; fill: #2e3436; fill-opacity: 1.00; stroke: none;">VMware Virtual (8.7%)</text></g><g id="ezcGraphTextBox_31" style=" cursor: pointer;" onclick="top.location = 'https://linux-hardware.org/?view=computers&amp;f=node_model_family&amp;v=&amp;p=0'"><path d=" M 355.4082,157.7500 L 355.4082,139.7500 L 479.3382,139.7500 L 479.3382,157.7500 L 355.4082,157.7500 z " style="fill: #ffffff; fill-opacity: 0.00; stroke: none;" id="ezcGraphPolygon_44"/><text id="ezcGraphTextBox_31_text" x="355.9082" text-length="122.4300px" y="154.2750" style="font-size: 16px; font-family: 'Arial'; fill: #2e3436; fill-opacity: 1.00; stroke: none;">Unknown (7.2%)</text></g><g id="ezcGraphTextBox_35"><path d=" M 381.7872,206.2500 L 381.7872,188.2500 L 496.9722,188.2500 L 496.9722,206.2500 L 381.7872,206.2500 z " style="fill: #ffffff; fill-opacity: 0.00; stroke: none;" id="ezcGraphPolygon_45"/><text id="ezcGraphTextBox_35_text" x="382.2872" text-length="113.6850px" y="202.7750" style="font-size: 16px; font-family: 'Arial'; fill: #2e3436; fill-opacity: 1.00; stroke: none;">Others (8.7%)</text></g><g id="ezcGraphTextBox_39" style=" cursor: pointer;" onclick="top.location = 'https://linux-hardware.org/?view=computers&amp;f=node_model_family&amp;v=Oracle+VirtualBox&amp;p=0'"><path d=" M 277.2797,372.5500 L 277.2797,337.9500 L 418.6997,337.9500 L 418.6997,372.5500 L 277.2797,372.5500 z " style="fill: #ffffff; fill-opacity: 0.00; stroke: none;" id="ezcGraphPolygon_46"/><text id="ezcGraphTextBox_39_text" x="277.7797" text-length="139.9200px" y="352.4750" style="font-size: 16px; font-family: 'Arial'; fill: #2e3436; fill-opacity: 1.00; stroke: none;">Oracle Virtua...</text><text id="ezcGraphTextBox_39_text" x="277.7797" text-length="61.2150px" y="370.6250" style="font-size: 16px; font-family: 'Arial'; fill: #2e3436; fill-opacity: 1.00; stroke: none;">(36.2%)</text></g></g></svg>
