<?xml version="1.0"?>
<svg xmlns="http://www.w3.org/2000/svg" width="500" height="420" version="1.0" id="ezcGraph"><defs/><g id="ezcGraphChart" color-rendering="optimizeQuality" shape-rendering="geometricPrecision" text-rendering="optimizeLegibility"><path d=" M 0.0000,420.0000 L 0.0000,0.0000 L 500.0000,0.0000 L 500.0000,420.0000 L 0.0000,420.0000 z " style="fill: #eeeeec; fill-opacity: 1.00; stroke: none;" id="ezcGraphPolygon_1"/><path d=" M 0.0000,42.0000 L 0.0000,0.0000 L 500.0000,0.0000 L 500.0000,42.0000 L 0.0000,42.0000 z " style="fill: #000000; fill-opacity: 0.00; stroke: none;" id="ezcGraphPolygon_2"/><path d="M 256.44,241.71 L 368.94,241.71 A 112.50,112.50 0 0,1 203.75,341.11 z" style="fill: #3465a4; fill-opacity: 1.00; stroke: none; cursor: pointer;" id="ezcGraphCircleSector_4" onclick="top.location = 'https://linux-hardware.org/?view=computers&amp;f=storage_model&amp;v=Intel+82371AB%2FEB%2FMB+PIIX4+IDE&amp;p=0'"/><path d="M 256.75,242.21 L 368.44,242.21 A 112.00,112.00 0 0,1 204.42,340.90 z" style="fill: none; stroke: #1a3352; stroke-width: 1; stroke-opacity: 1.00; stroke-linecap: round; stroke-linejoin: round;" id="ezcGraphCircleSector_5"/><path d="M 250.00,231.00 L 197.30,330.40 A 112.50,112.50 0 0,1 137.50,231.00 z" style="fill: #4e9a06; fill-opacity: 1.00; stroke: none; cursor: pointer;" id="ezcGraphCircleSector_6" onclick="top.location = 'https://linux-hardware.org/?view=computers&amp;f=storage_model&amp;v=Intel+82801HM%2FHEM+%28ICH8M%2FICH8M-E%29+SATA+Controller+%5BAHCI+mode%5D&amp;p=0'"/><path d="M 249.17,231.50 L 197.10,329.72 A 112.00,112.00 0 0,1 138.00,231.50 z" style="fill: none; stroke: #274d03; stroke-width: 1; stroke-opacity: 1.00; stroke-linecap: round; stroke-linejoin: round;" id="ezcGraphCircleSector_7"/><path d="M 250.00,231.00 L 137.50,231.00 A 112.50,112.50 0 0,1 172.63,149.33 z" style="fill: #cc0000; fill-opacity: 1.00; stroke: none; cursor: pointer;" id="ezcGraphCircleSector_8" onclick="top.location = 'https://linux-hardware.org/?view=computers&amp;f=storage_model&amp;v=LSI+Logic+%2F+Symbios+Logic+53c1030+PCI-X+Fusion-MPT+Dual+Ultra320+SCSI&amp;p=0'"/><path d="M 248.84,230.50 L 138.00,230.50 A 112.00,112.00 0 0,1 172.61,150.03 z" style="fill: none; stroke: #660000; stroke-width: 1; stroke-opacity: 1.00; stroke-linecap: round; stroke-linejoin: round;" id="ezcGraphCircleSector_9"/><path d="M 250.00,231.00 L 172.63,149.33 A 112.50,112.50 0 0,1 240.87,118.87 z" style="fill: #edd400; fill-opacity: 1.00; stroke: none; cursor: pointer;" id="ezcGraphCircleSector_10" onclick="top.location = 'https://linux-hardware.org/?view=computers&amp;f=storage_model&amp;v=Intel+82801IR%2FIO%2FIH+%28ICH9R%2FDO%2FDH%29+6+port+SATA+Controller+%5BAHCI+mode%5D&amp;p=0'"/><path d="M 249.39,229.63 L 173.34,149.34 A 112.00,112.00 0 0,1 240.41,119.41 z" style="fill: none; stroke: #776a00; stroke-width: 1; stroke-opacity: 1.00; stroke-linecap: round; stroke-linejoin: round;" id="ezcGraphCircleSector_11"/><path d="M 250.00,231.00 L 240.87,118.87 A 112.50,112.50 0 0,1 308.00,134.60 z" style="fill: #75505b; fill-opacity: 1.00; stroke: none; cursor: pointer;" id="ezcGraphCircleSector_12" onclick="top.location = 'https://linux-hardware.org/?view=computers&amp;f=storage_model&amp;v=Red+Hat+Virtio+block+device&amp;p=0'"/><path d="M 250.37,229.41 L 241.41,119.33 A 112.00,112.00 0 0,1 307.31,134.77 z" style="fill: none; stroke: #3b282e; stroke-width: 1; stroke-opacity: 1.00; stroke-linecap: round; stroke-linejoin: round;" id="ezcGraphCircleSector_13"/><path d="M 250.00,231.00 L 308.00,134.60 A 112.50,112.50 0 0,1 362.50,231.00 z" style="fill: #f57900; fill-opacity: 1.00; stroke: none;" id="ezcGraphCircleSector_14"/><path d="M 250.88,230.50 L 308.17,135.29 A 112.00,112.00 0 0,1 362.00,230.50 z" style="fill: none; stroke: #7b3d00; stroke-width: 1; stroke-opacity: 1.00; stroke-linecap: round; stroke-linejoin: round;" id="ezcGraphCircleSector_15"/><path d=" M 216.0366,154.9018 L 195.0102,116.0000" style="fill: none; stroke: #000000; stroke-width: 1; stroke-opacity: 1.00; stroke-linecap: round; stroke-linejoin: round;" id="ezcGraphLine_16"/><ellipse cx="216.0366" cy="154.9018" rx="3.0000" ry="3.0000" style="fill: #000000; fill-opacity: 1.00; stroke: none;" id="ezcGraphCircle_17"/><ellipse cx="195.0102" cy="116.0000" rx="3.0000" ry="3.0000" style="fill: #000000; fill-opacity: 1.00; stroke: none;" id="ezcGraphCircle_18"/><path d=" M 173.4489,198.0701 L 129.4356,181.0000" style="fill: none; stroke: #000000; stroke-width: 1; stroke-opacity: 1.00; stroke-linecap: round; stroke-linejoin: round;" id="ezcGraphLine_20"/><ellipse cx="173.4489" cy="198.0701" rx="3.0000" ry="3.0000" style="fill: #000000; fill-opacity: 1.00; stroke: none;" id="ezcGraphCircle_21"/><ellipse cx="129.4356" cy="181.0000" rx="3.0000" ry="3.0000" style="fill: #000000; fill-opacity: 1.00; stroke: none;" id="ezcGraphCircle_22"/><path d=" M 178.5952,273.9628 L 136.6268,295.0000" style="fill: none; stroke: #000000; stroke-width: 1; stroke-opacity: 1.00; stroke-linecap: round; stroke-linejoin: round;" id="ezcGraphLine_24"/><ellipse cx="178.5952" cy="273.9628" rx="3.0000" ry="3.0000" style="fill: #000000; fill-opacity: 1.00; stroke: none;" id="ezcGraphCircle_25"/><ellipse cx="136.6268" cy="295.0000" rx="3.0000" ry="3.0000" style="fill: #000000; fill-opacity: 1.00; stroke: none;" id="ezcGraphCircle_26"/><path d=" M 269.0146,149.8650 L 283.2213,109.0000" style="fill: none; stroke: #000000; stroke-width: 1; stroke-opacity: 1.00; stroke-linecap: round; stroke-linejoin: round;" id="ezcGraphLine_28"/><ellipse cx="269.0146" cy="149.8650" rx="3.0000" ry="3.0000" style="fill: #000000; fill-opacity: 1.00; stroke: none;" id="ezcGraphCircle_29"/><ellipse cx="283.2213" cy="109.0000" rx="3.0000" ry="3.0000" style="fill: #000000; fill-opacity: 1.00; stroke: none;" id="ezcGraphCircle_30"/><path d=" M 322.5420,189.9865 L 364.5403,169.0000" style="fill: none; stroke: #000000; stroke-width: 1; stroke-opacity: 1.00; stroke-linecap: round; stroke-linejoin: round;" id="ezcGraphLine_32"/><ellipse cx="322.5420" cy="189.9865" rx="3.0000" ry="3.0000" style="fill: #000000; fill-opacity: 1.00; stroke: none;" id="ezcGraphCircle_33"/><ellipse cx="364.5403" cy="169.0000" rx="3.0000" ry="3.0000" style="fill: #000000; fill-opacity: 1.00; stroke: none;" id="ezcGraphCircle_34"/><path d=" M 299.4072,313.1155 L 300.0000,348.0000" style="fill: none; stroke: #000000; stroke-width: 1; stroke-opacity: 1.00; stroke-linecap: round; stroke-linejoin: round;" id="ezcGraphLine_36"/><ellipse cx="299.4072" cy="313.1155" rx="3.0000" ry="3.0000" style="fill: #000000; fill-opacity: 1.00; stroke: none;" id="ezcGraphCircle_37"/><ellipse cx="300.0000" cy="348.0000" rx="3.0000" ry="3.0000" style="fill: #000000; fill-opacity: 1.00; stroke: none;" id="ezcGraphCircle_38"/><g id="ezcGraphTextBox_3"><path d=" M 111.7000,42.0000 L 111.7000,0.5000 L 388.8000,0.5000 L 388.8000,42.0000 L 111.7000,42.0000 z " style="fill: #ffffff; fill-opacity: 0.00; stroke: none;" id="ezcGraphPolygon_40"/><text id="ezcGraphTextBox_3_text" x="112.2000" text-length="275.6000px" y="35.0000" style="font-size: 40px; font-family: 'Arial'; fill: #2e3436; fill-opacity: 1.00; stroke: none;">Storage Model</text></g><g id="ezcGraphTextBox_19" style=" cursor: pointer;" onclick="top.location = 'https://linux-hardware.org/?view=computers&amp;f=storage_model&amp;v=Intel+82801IR%2FIO%2FIH+%28ICH9R%2FDO%2FDH%29+6+port+SATA+Controller+%5BAHCI+mode%5D&amp;p=0'"><path d=" M 69.7902,131.0500 L 69.7902,101.4500 L 190.0102,101.4500 L 190.0102,131.0500 L 69.7902,131.0500 z " style="fill: #ffffff; fill-opacity: 0.00; stroke: none;" id="ezcGraphPolygon_41"/><text id="ezcGraphTextBox_19_text" x="70.2902" text-length="118.7200px" y="113.8500" style="font-size: 14px; font-family: 'Arial'; fill: #2e3436; fill-opacity: 1.00; stroke: none;">82801IR/IO/IH...</text><text id="ezcGraphTextBox_19_text" x="137.0702" text-length="51.9400px" y="129.2500" style="font-size: 14px; font-family: 'Arial'; fill: #2e3436; fill-opacity: 1.00; stroke: none;">(10.8%)</text></g><g id="ezcGraphTextBox_23" style=" cursor: pointer;" onclick="top.location = 'https://linux-hardware.org/?view=computers&amp;f=storage_model&amp;v=LSI+Logic+%2F+Symbios+Logic+53c1030+PCI-X+Fusion-MPT+Dual+Ultra320+SCSI&amp;p=0'"><path d=" M 4.2156,196.0500 L 4.2156,166.4500 L 124.4356,166.4500 L 124.4356,196.0500 L 4.2156,196.0500 z " style="fill: #ffffff; fill-opacity: 0.00; stroke: none;" id="ezcGraphPolygon_42"/><text id="ezcGraphTextBox_23_text" x="4.7156" text-length="118.7200px" y="178.8500" style="font-size: 14px; font-family: 'Arial'; fill: #2e3436; fill-opacity: 1.00; stroke: none;">53c1030 PCI-X...</text><text id="ezcGraphTextBox_23_text" x="71.4956" text-length="51.9400px" y="194.2500" style="font-size: 14px; font-family: 'Arial'; fill: #2e3436; fill-opacity: 1.00; stroke: none;">(12.9%)</text></g><g id="ezcGraphTextBox_27" style=" cursor: pointer;" onclick="top.location = 'https://linux-hardware.org/?view=computers&amp;f=storage_model&amp;v=Intel+82801HM%2FHEM+%28ICH8M%2FICH8M-E%29+SATA+Controller+%5BAHCI+mode%5D&amp;p=0'"><path d=" M 41.0868,310.0500 L 41.0868,280.4500 L 131.6268,280.4500 L 131.6268,310.0500 L 41.0868,310.0500 z " style="fill: #ffffff; fill-opacity: 0.00; stroke: none;" id="ezcGraphPolygon_43"/><text id="ezcGraphTextBox_27_text" x="49.0068" text-length="81.6200px" y="292.8500" style="font-size: 14px; font-family: 'Arial'; fill: #2e3436; fill-opacity: 1.00; stroke: none;">82801HM/HEM</text><text id="ezcGraphTextBox_27_text" x="41.5868" text-length="89.0400px" y="308.2500" style="font-size: 14px; font-family: 'Arial'; fill: #2e3436; fill-opacity: 1.00; stroke: none;">(... (17.2%)</text></g><g id="ezcGraphTextBox_31" style=" cursor: pointer;" onclick="top.location = 'https://linux-hardware.org/?view=computers&amp;f=storage_model&amp;v=Red+Hat+Virtio+block+device&amp;p=0'"><path d=" M 288.7213,124.0500 L 288.7213,94.4500 L 408.9413,94.4500 L 408.9413,124.0500 L 288.7213,124.0500 z " style="fill: #ffffff; fill-opacity: 0.00; stroke: none;" id="ezcGraphPolygon_44"/><text id="ezcGraphTextBox_31_text" x="289.2213" text-length="118.7200px" y="106.8500" style="font-size: 14px; font-family: 'Arial'; fill: #2e3436; fill-opacity: 1.00; stroke: none;">Virtio block ...</text><text id="ezcGraphTextBox_31_text" x="289.2213" text-length="44.5200px" y="122.2500" style="font-size: 14px; font-family: 'Arial'; fill: #2e3436; fill-opacity: 1.00; stroke: none;">(9.9%)</text></g><g id="ezcGraphTextBox_35"><path d=" M 370.0403,184.0500 L 370.0403,154.4500 L 423.4803,154.4500 L 423.4803,184.0500 L 370.0403,184.0500 z " style="fill: #ffffff; fill-opacity: 0.00; stroke: none;" id="ezcGraphPolygon_45"/><text id="ezcGraphTextBox_35_text" x="370.5403" text-length="44.5200px" y="166.8500" style="font-size: 14px; font-family: 'Arial'; fill: #2e3436; fill-opacity: 1.00; stroke: none;">Others</text><text id="ezcGraphTextBox_35_text" x="370.5403" text-length="51.9400px" y="182.2500" style="font-size: 14px; font-family: 'Arial'; fill: #2e3436; fill-opacity: 1.00; stroke: none;">(16.4%)</text></g><g id="ezcGraphTextBox_39" style=" cursor: pointer;" onclick="top.location = 'https://linux-hardware.org/?view=computers&amp;f=storage_model&amp;v=Intel+82371AB%2FEB%2FMB+PIIX4+IDE&amp;p=0'"><path d=" M 305.5000,363.0500 L 305.5000,333.4500 L 425.7200,333.4500 L 425.7200,363.0500 L 305.5000,363.0500 z " style="fill: #ffffff; fill-opacity: 0.00; stroke: none;" id="ezcGraphPolygon_46"/><text id="ezcGraphTextBox_39_text" x="306.0000" text-length="118.7200px" y="345.8500" style="font-size: 14px; font-family: 'Arial'; fill: #2e3436; fill-opacity: 1.00; stroke: none;">82371AB/EB/MB...</text><text id="ezcGraphTextBox_39_text" x="306.0000" text-length="51.9400px" y="361.2500" style="font-size: 14px; font-family: 'Arial'; fill: #2e3436; fill-opacity: 1.00; stroke: none;">(32.8%)</text></g></g></svg>
