<?xml version="1.0"?>
<svg xmlns="http://www.w3.org/2000/svg" width="500" height="420" version="1.0" id="ezcGraph"><defs/><g id="ezcGraphChart" color-rendering="optimizeQuality" shape-rendering="geometricPrecision" text-rendering="optimizeLegibility"><path d=" M 0.0000,420.0000 L 0.0000,0.0000 L 500.0000,0.0000 L 500.0000,420.0000 L 0.0000,420.0000 z " style="fill: #eeeeec; fill-opacity: 1.00; stroke: none;" id="ezcGraphPolygon_1"/><path d=" M 0.0000,42.0000 L 0.0000,0.0000 L 500.0000,0.0000 L 500.0000,42.0000 L 0.0000,42.0000 z " style="fill: #000000; fill-opacity: 0.00; stroke: none;" id="ezcGraphPolygon_2"/><path d="M 238.49,235.88 L 350.99,235.88 A 112.50,112.50 0 1,1 316.69,155.00 z" style="fill: #3465a4; fill-opacity: 1.00; stroke: none; cursor: pointer;" id="ezcGraphCircleSector_4" onclick="top.location = 'https://linux-hardware.org/?view=computers&amp;f=node_ram_used&amp;v=0.5&amp;p=0'"/><path d="M 237.31,236.38 L 350.49,236.38 A 112.00,112.00 0 1,1 315.98,155.02 z" style="fill: none; stroke: #1a3352; stroke-width: 1; stroke-opacity: 1.00; stroke-linecap: round; stroke-linejoin: round;" id="ezcGraphCircleSector_5"/><path d="M 250.00,231.00 L 328.20,150.12 A 112.50,112.50 0 0,1 357.56,198.04 z" style="fill: #4e9a06; fill-opacity: 1.00; stroke: none; cursor: pointer;" id="ezcGraphCircleSector_6" onclick="top.location = 'https://linux-hardware.org/?view=computers&amp;f=node_ram_used&amp;v=1.0&amp;p=0'"/><path d="M 251.71,229.95 L 328.21,150.83 A 112.00,112.00 0 0,1 356.94,197.71 z" style="fill: none; stroke: #274d03; stroke-width: 1; stroke-opacity: 1.00; stroke-linecap: round; stroke-linejoin: round;" id="ezcGraphCircleSector_7"/><path d="M 250.00,231.00 L 357.56,198.04 A 112.50,112.50 0 0,1 362.36,225.32 z" style="fill: #cc0000; fill-opacity: 1.00; stroke: none; cursor: pointer;" id="ezcGraphCircleSector_8" onclick="top.location = 'https://linux-hardware.org/?view=computers&amp;f=node_ram_used&amp;v=2.0&amp;p=0'"/><path d="M 254.00,230.30 L 357.23,198.67 A 112.00,112.00 0 0,1 361.83,224.85 z" style="fill: none; stroke: #660000; stroke-width: 1; stroke-opacity: 1.00; stroke-linecap: round; stroke-linejoin: round;" id="ezcGraphCircleSector_9"/><path d="M 250.00,231.00 L 362.36,225.32 A 112.50,112.50 0 0,1 362.50,230.37 z" style="fill: #edd400; fill-opacity: 1.00; stroke: none; cursor: pointer;" id="ezcGraphCircleSector_10" onclick="top.location = 'https://linux-hardware.org/?view=computers&amp;f=node_ram_used&amp;v=3.0&amp;p=0'"/><path d="M 272.27,230.38 L 361.88,225.85 A 112.00,112.00 0 0,1 362.00,229.87 z" style="fill: none; stroke: #776a00; stroke-width: 1; stroke-opacity: 1.00; stroke-linecap: round; stroke-linejoin: round;" id="ezcGraphCircleSector_11"/><path d="M 250.00,231.00 L 362.50,230.37 A 112.50,112.50 0 0,1 362.50,231.00 z" style="fill: #75505b; fill-opacity: 1.00; stroke: none; cursor: pointer;" id="ezcGraphCircleSector_12" onclick="top.location = 'https://linux-hardware.org/?view=computers&amp;f=node_ram_used&amp;v=8.0&amp;p=0'"/><path d=" M 161.7733,268.4176 L 130.7922,284.0000" style="fill: none; stroke: #000000; stroke-width: 1; stroke-opacity: 1.00; stroke-linecap: round; stroke-linejoin: round;" id="ezcGraphLine_13"/><ellipse cx="161.7733" cy="268.4176" rx="3.0000" ry="3.0000" style="fill: #000000; fill-opacity: 1.00; stroke: none;" id="ezcGraphCircle_14"/><ellipse cx="130.7922" cy="284.0000" rx="3.0000" ry="3.0000" style="fill: #000000; fill-opacity: 1.00; stroke: none;" id="ezcGraphCircle_15"/><path d=" M 321.0533,187.4585 L 362.1555,165.0000" style="fill: none; stroke: #000000; stroke-width: 1; stroke-opacity: 1.00; stroke-linecap: round; stroke-linejoin: round;" id="ezcGraphLine_17"/><ellipse cx="321.0533" cy="187.4585" rx="3.0000" ry="3.0000" style="fill: #000000; fill-opacity: 1.00; stroke: none;" id="ezcGraphCircle_18"/><ellipse cx="362.1555" cy="165.0000" rx="3.0000" ry="3.0000" style="fill: #000000; fill-opacity: 1.00; stroke: none;" id="ezcGraphCircle_19"/><path d=" M 332.0763,216.5805 L 379.0488,209.0000" style="fill: none; stroke: #000000; stroke-width: 1; stroke-opacity: 1.00; stroke-linecap: round; stroke-linejoin: round;" id="ezcGraphLine_21"/><ellipse cx="332.0763" cy="216.5805" rx="3.0000" ry="3.0000" style="fill: #000000; fill-opacity: 1.00; stroke: none;" id="ezcGraphCircle_22"/><ellipse cx="379.0488" cy="209.0000" rx="3.0000" ry="3.0000" style="fill: #000000; fill-opacity: 1.00; stroke: none;" id="ezcGraphCircle_23"/><path d=" M 333.3006,228.6628 L 380.0353,246.5000" style="fill: none; stroke: #000000; stroke-width: 1; stroke-opacity: 1.00; stroke-linecap: round; stroke-linejoin: round;" id="ezcGraphLine_25"/><ellipse cx="333.3006" cy="228.6628" rx="3.0000" ry="3.0000" style="fill: #000000; fill-opacity: 1.00; stroke: none;" id="ezcGraphCircle_26"/><ellipse cx="380.0353" cy="246.5000" rx="3.0000" ry="3.0000" style="fill: #000000; fill-opacity: 1.00; stroke: none;" id="ezcGraphCircle_27"/><path d=" M 333.3330,230.7663 L 369.2078,284.0000" style="fill: none; stroke: #000000; stroke-width: 1; stroke-opacity: 1.00; stroke-linecap: round; stroke-linejoin: round;" id="ezcGraphLine_29"/><ellipse cx="333.3330" cy="230.7663" rx="3.0000" ry="3.0000" style="fill: #000000; fill-opacity: 1.00; stroke: none;" id="ezcGraphCircle_30"/><ellipse cx="369.2078" cy="284.0000" rx="3.0000" ry="3.0000" style="fill: #000000; fill-opacity: 1.00; stroke: none;" id="ezcGraphCircle_31"/><g id="ezcGraphTextBox_3"><path d=" M 164.7000,42.0000 L 164.7000,0.5000 L 335.8000,0.5000 L 335.8000,42.0000 L 164.7000,42.0000 z " style="fill: #ffffff; fill-opacity: 0.00; stroke: none;" id="ezcGraphPolygon_33"/><text id="ezcGraphTextBox_3_text" x="165.2000" text-length="169.6000px" y="35.0000" style="font-size: 40px; font-family: 'Arial'; fill: #2e3436; fill-opacity: 1.00; stroke: none;">RAM Used</text></g><g id="ezcGraphTextBox_16" style=" cursor: pointer;" onclick="top.location = 'https://linux-hardware.org/?view=computers&amp;f=node_ram_used&amp;v=0.5&amp;p=0'"><path d=" M 25.1822,302.0500 L 25.1822,266.4500 L 125.7922,266.4500 L 125.7922,302.0500 L 25.1822,302.0500 z " style="fill: #ffffff; fill-opacity: 0.00; stroke: none;" id="ezcGraphPolygon_34"/><text id="ezcGraphTextBox_16_text" x="25.6822" text-length="99.1100px" y="281.4000" style="font-size: 17px; font-family: 'Arial'; fill: #2e3436; fill-opacity: 1.00; stroke: none;">0.01-0.5 GB</text><text id="ezcGraphTextBox_16_text" x="61.7222" text-length="63.0700px" y="300.1000" style="font-size: 17px; font-family: 'Arial'; fill: #2e3436; fill-opacity: 1.00; stroke: none;">(87.2%)</text></g><g id="ezcGraphTextBox_20" style=" cursor: pointer;" onclick="top.location = 'https://linux-hardware.org/?view=computers&amp;f=node_ram_used&amp;v=1.0&amp;p=0'"><path d=" M 367.6555,183.0500 L 367.6555,147.4500 L 468.2655,147.4500 L 468.2655,183.0500 L 367.6555,183.0500 z " style="fill: #ffffff; fill-opacity: 0.00; stroke: none;" id="ezcGraphPolygon_35"/><text id="ezcGraphTextBox_20_text" x="368.1555" text-length="99.1100px" y="162.4000" style="font-size: 17px; font-family: 'Arial'; fill: #2e3436; fill-opacity: 1.00; stroke: none;">0.51-1.0 GB</text><text id="ezcGraphTextBox_20_text" x="368.1555" text-length="54.0600px" y="181.1000" style="font-size: 17px; font-family: 'Arial'; fill: #2e3436; fill-opacity: 1.00; stroke: none;">(8.0%)</text></g><g id="ezcGraphTextBox_24" style=" cursor: pointer;" onclick="top.location = 'https://linux-hardware.org/?view=computers&amp;f=node_ram_used&amp;v=2.0&amp;p=0'"><path d=" M 384.5488,227.0500 L 384.5488,191.4500 L 485.1588,191.4500 L 485.1588,227.0500 L 384.5488,227.0500 z " style="fill: #ffffff; fill-opacity: 0.00; stroke: none;" id="ezcGraphPolygon_36"/><text id="ezcGraphTextBox_24_text" x="385.0488" text-length="99.1100px" y="206.4000" style="font-size: 17px; font-family: 'Arial'; fill: #2e3436; fill-opacity: 1.00; stroke: none;">1.01-2.0 GB</text><text id="ezcGraphTextBox_24_text" x="385.0488" text-length="54.0600px" y="225.1000" style="font-size: 17px; font-family: 'Arial'; fill: #2e3436; fill-opacity: 1.00; stroke: none;">(3.9%)</text></g><g id="ezcGraphTextBox_28" style=" cursor: pointer;" onclick="top.location = 'https://linux-hardware.org/?view=computers&amp;f=node_ram_used&amp;v=3.0&amp;p=0'"><path d=" M 385.5353,264.5500 L 385.5353,228.9500 L 486.1453,228.9500 L 486.1453,264.5500 L 385.5353,264.5500 z " style="fill: #ffffff; fill-opacity: 0.00; stroke: none;" id="ezcGraphPolygon_37"/><text id="ezcGraphTextBox_28_text" x="386.0353" text-length="99.1100px" y="243.9000" style="font-size: 17px; font-family: 'Arial'; fill: #2e3436; fill-opacity: 1.00; stroke: none;">2.01-3.0 GB</text><text id="ezcGraphTextBox_28_text" x="386.0353" text-length="54.0600px" y="262.6000" style="font-size: 17px; font-family: 'Arial'; fill: #2e3436; fill-opacity: 1.00; stroke: none;">(0.7%)</text></g><g id="ezcGraphTextBox_32" style=" cursor: pointer;" onclick="top.location = 'https://linux-hardware.org/?view=computers&amp;f=node_ram_used&amp;v=8.0&amp;p=0'"><path d=" M 374.7078,302.0500 L 374.7078,266.4500 L 475.3178,266.4500 L 475.3178,302.0500 L 374.7078,302.0500 z " style="fill: #ffffff; fill-opacity: 0.00; stroke: none;" id="ezcGraphPolygon_38"/><text id="ezcGraphTextBox_32_text" x="375.2078" text-length="99.1100px" y="281.4000" style="font-size: 17px; font-family: 'Arial'; fill: #2e3436; fill-opacity: 1.00; stroke: none;">4.01-8.0 GB</text><text id="ezcGraphTextBox_32_text" x="375.2078" text-length="54.0600px" y="300.1000" style="font-size: 17px; font-family: 'Arial'; fill: #2e3436; fill-opacity: 1.00; stroke: none;">(0.1%)</text></g></g></svg>
