<?xml version="1.0"?>
<svg xmlns="http://www.w3.org/2000/svg" width="500" height="420" version="1.0" id="ezcGraph"><defs/><g id="ezcGraphChart" color-rendering="optimizeQuality" shape-rendering="geometricPrecision" text-rendering="optimizeLegibility"><path d=" M 0.0000,420.0000 L 0.0000,0.0000 L 500.0000,0.0000 L 500.0000,420.0000 L 0.0000,420.0000 z " style="fill: #eeeeec; fill-opacity: 1.00; stroke: none;" id="ezcGraphPolygon_1"/><path d=" M 0.0000,42.0000 L 0.0000,0.0000 L 500.0000,0.0000 L 500.0000,42.0000 L 0.0000,42.0000 z " style="fill: #000000; fill-opacity: 0.00; stroke: none;" id="ezcGraphPolygon_2"/><path d="M 250.59,243.49 L 363.09,243.49 A 112.50,112.50 0 0,1 138.60,254.18 z" style="fill: #3465a4; fill-opacity: 1.00; stroke: none; cursor: pointer;" id="ezcGraphCircleSector_4" onclick="top.location = 'https://linux-hardware.org/?view=computers&amp;f=net_ethernet_model&amp;v=Intel+82540EM+Gigabit+Ethernet+Controller&amp;p=0'"/><path d="M 250.62,243.99 L 362.59,243.99 A 112.00,112.00 0 0,1 139.15,254.63 z" style="fill: none; stroke: #1a3352; stroke-width: 1; stroke-opacity: 1.00; stroke-linecap: round; stroke-linejoin: round;" id="ezcGraphCircleSector_5"/><path d="M 250.00,231.00 L 138.01,241.69 A 112.50,112.50 0 0,1 315.26,139.36 z" style="fill: #4e9a06; fill-opacity: 1.00; stroke: none; cursor: pointer;" id="ezcGraphCircleSector_6" onclick="top.location = 'https://linux-hardware.org/?view=computers&amp;f=net_ethernet_model&amp;v=Intel+82545EM+Gigabit+Ethernet+Controller+%28Copper%29&amp;p=0'"/><path d="M 249.73,230.52 L 138.46,241.15 A 112.00,112.00 0 0,1 314.56,139.48 z" style="fill: none; stroke: #274d03; stroke-width: 1; stroke-opacity: 1.00; stroke-linecap: round; stroke-linejoin: round;" id="ezcGraphCircleSector_7"/><path d="M 250.00,231.00 L 315.26,139.36 A 112.50,112.50 0 0,1 354.44,189.19 z" style="fill: #cc0000; fill-opacity: 1.00; stroke: none; cursor: pointer;" id="ezcGraphCircleSector_8" onclick="top.location = 'https://linux-hardware.org/?view=computers&amp;f=net_ethernet_model&amp;v=AMD+79c970+%5BPCnet32+LANCE%5D&amp;p=0'"/><path d="M 251.40,229.90 L 315.37,140.06 A 112.00,112.00 0 0,1 353.79,188.91 z" style="fill: none; stroke: #660000; stroke-width: 1; stroke-opacity: 1.00; stroke-linecap: round; stroke-linejoin: round;" id="ezcGraphCircleSector_9"/><path d="M 250.00,231.00 L 354.44,189.19 A 112.50,112.50 0 0,1 360.47,209.71 z" style="fill: #edd400; fill-opacity: 1.00; stroke: none; cursor: pointer;" id="ezcGraphCircleSector_10" onclick="top.location = 'https://linux-hardware.org/?view=computers&amp;f=net_ethernet_model&amp;v=Intel+82574L+Gigabit+Network+Connection&amp;p=0'"/><path d="M 255.05,229.52 L 354.16,189.84 A 112.00,112.00 0 0,1 359.88,209.31 z" style="fill: none; stroke: #776a00; stroke-width: 1; stroke-opacity: 1.00; stroke-linecap: round; stroke-linejoin: round;" id="ezcGraphCircleSector_11"/><path d="M 250.00,231.00 L 360.47,209.71 A 112.50,112.50 0 0,1 362.50,231.00 z" style="fill: #75505b; fill-opacity: 1.00; stroke: none; cursor: pointer;" id="ezcGraphCircleSector_12" onclick="top.location = 'https://linux-hardware.org/?view=computers&amp;f=net_ethernet_model&amp;v=Amazon.com+Elastic+Network+Adapter+%28ENA%29&amp;p=0'"/><path d="M 255.24,230.50 L 360.07,210.29 A 112.00,112.00 0 0,1 362.00,230.50 z" style="fill: none; stroke: #3b282e; stroke-width: 1; stroke-opacity: 1.00; stroke-linecap: round; stroke-linejoin: round;" id="ezcGraphCircleSector_13"/><path d=" M 208.3333,158.8312 L 182.8118,122.0000" style="fill: none; stroke: #000000; stroke-width: 1; stroke-opacity: 1.00; stroke-linecap: round; stroke-linejoin: round;" id="ezcGraphLine_14"/><ellipse cx="208.3333" cy="158.8312" rx="3.0000" ry="3.0000" style="fill: #000000; fill-opacity: 1.00; stroke: none;" id="ezcGraphCircle_15"/><ellipse cx="182.8118" cy="122.0000" rx="3.0000" ry="3.0000" style="fill: #000000; fill-opacity: 1.00; stroke: none;" id="ezcGraphCircle_16"/><path d=" M 315.5044,179.4868 L 353.6780,153.0000" style="fill: none; stroke: #000000; stroke-width: 1; stroke-opacity: 1.00; stroke-linecap: round; stroke-linejoin: round;" id="ezcGraphLine_18"/><ellipse cx="315.5044" cy="179.4868" rx="3.0000" ry="3.0000" style="fill: #000000; fill-opacity: 1.00; stroke: none;" id="ezcGraphCircle_19"/><ellipse cx="353.6780" cy="153.0000" rx="3.0000" ry="3.0000" style="fill: #000000; fill-opacity: 1.00; stroke: none;" id="ezcGraphCircle_20"/><path d=" M 329.9577,207.5223 L 375.7038,195.0000" style="fill: none; stroke: #000000; stroke-width: 1; stroke-opacity: 1.00; stroke-linecap: round; stroke-linejoin: round;" id="ezcGraphLine_22"/><ellipse cx="329.9577" cy="207.5223" rx="3.0000" ry="3.0000" style="fill: #000000; fill-opacity: 1.00; stroke: none;" id="ezcGraphCircle_23"/><ellipse cx="375.7038" cy="195.0000" rx="3.0000" ry="3.0000" style="fill: #000000; fill-opacity: 1.00; stroke: none;" id="ezcGraphCircle_24"/><path d=" M 332.9560,223.0787 L 380.9910,232.5000" style="fill: none; stroke: #000000; stroke-width: 1; stroke-opacity: 1.00; stroke-linecap: round; stroke-linejoin: round;" id="ezcGraphLine_26"/><ellipse cx="332.9560" cy="223.0787" rx="3.0000" ry="3.0000" style="fill: #000000; fill-opacity: 1.00; stroke: none;" id="ezcGraphCircle_27"/><ellipse cx="380.9910" cy="232.5000" rx="3.0000" ry="3.0000" style="fill: #000000; fill-opacity: 1.00; stroke: none;" id="ezcGraphCircle_28"/><path d=" M 254.5599,326.7248 L 255.0000,368.0000" style="fill: none; stroke: #000000; stroke-width: 1; stroke-opacity: 1.00; stroke-linecap: round; stroke-linejoin: round;" id="ezcGraphLine_30"/><ellipse cx="254.5599" cy="326.7248" rx="3.0000" ry="3.0000" style="fill: #000000; fill-opacity: 1.00; stroke: none;" id="ezcGraphCircle_31"/><ellipse cx="255.0000" cy="368.0000" rx="3.0000" ry="3.0000" style="fill: #000000; fill-opacity: 1.00; stroke: none;" id="ezcGraphCircle_32"/><g id="ezcGraphTextBox_3"><path d=" M 101.1000,42.0000 L 101.1000,0.5000 L 399.4000,0.5000 L 399.4000,42.0000 L 101.1000,42.0000 z " style="fill: #ffffff; fill-opacity: 0.00; stroke: none;" id="ezcGraphPolygon_34"/><text id="ezcGraphTextBox_3_text" x="101.6000" text-length="296.8000px" y="35.0000" style="font-size: 40px; font-family: 'Arial'; fill: #2e3436; fill-opacity: 1.00; stroke: none;">Ethernet Model</text></g><g id="ezcGraphTextBox_17" style=" cursor: pointer;" onclick="top.location = 'https://linux-hardware.org/?view=computers&amp;f=net_ethernet_model&amp;v=Intel+82545EM+Gigabit+Ethernet+Controller+%28Copper%29&amp;p=0'"><path d=" M 66.0718,136.0500 L 66.0718,108.4500 L 177.8118,108.4500 L 177.8118,136.0500 L 66.0718,136.0500 z " style="fill: #ffffff; fill-opacity: 0.00; stroke: none;" id="ezcGraphPolygon_35"/><text id="ezcGraphTextBox_17_text" x="66.5718" text-length="110.2400px" y="120.0000" style="font-size: 13px; font-family: 'Arial'; fill: #2e3436; fill-opacity: 1.00; stroke: none;">82545EM Gigab...</text><text id="ezcGraphTextBox_17_text" x="128.5818" text-length="48.2300px" y="134.3000" style="font-size: 13px; font-family: 'Arial'; fill: #2e3436; fill-opacity: 1.00; stroke: none;">(36.4%)</text></g><g id="ezcGraphTextBox_21" style=" cursor: pointer;" onclick="top.location = 'https://linux-hardware.org/?view=computers&amp;f=net_ethernet_model&amp;v=AMD+79c970+%5BPCnet32+LANCE%5D&amp;p=0'"><path d=" M 359.1780,167.0500 L 359.1780,139.4500 L 470.9180,139.4500 L 470.9180,167.0500 L 359.1780,167.0500 z " style="fill: #ffffff; fill-opacity: 0.00; stroke: none;" id="ezcGraphPolygon_36"/><text id="ezcGraphTextBox_21_text" x="359.6780" text-length="110.2400px" y="151.0000" style="font-size: 13px; font-family: 'Arial'; fill: #2e3436; fill-opacity: 1.00; stroke: none;">79c970 [PCnet...</text><text id="ezcGraphTextBox_21_text" x="359.6780" text-length="41.3400px" y="165.3000" style="font-size: 13px; font-family: 'Arial'; fill: #2e3436; fill-opacity: 1.00; stroke: none;">(9.1%)</text></g><g id="ezcGraphTextBox_25" style=" cursor: pointer;" onclick="top.location = 'https://linux-hardware.org/?view=computers&amp;f=net_ethernet_model&amp;v=Intel+82574L+Gigabit+Network+Connection&amp;p=0'"><path d=" M 381.2038,209.0500 L 381.2038,181.4500 L 492.9438,181.4500 L 492.9438,209.0500 L 381.2038,209.0500 z " style="fill: #ffffff; fill-opacity: 0.00; stroke: none;" id="ezcGraphPolygon_37"/><text id="ezcGraphTextBox_25_text" x="381.7038" text-length="110.2400px" y="193.0000" style="font-size: 13px; font-family: 'Arial'; fill: #2e3436; fill-opacity: 1.00; stroke: none;">82574L Gigabi...</text><text id="ezcGraphTextBox_25_text" x="381.7038" text-length="41.3400px" y="207.3000" style="font-size: 13px; font-family: 'Arial'; fill: #2e3436; fill-opacity: 1.00; stroke: none;">(3.0%)</text></g><g id="ezcGraphTextBox_29" style=" cursor: pointer;" onclick="top.location = 'https://linux-hardware.org/?view=computers&amp;f=net_ethernet_model&amp;v=Amazon.com+Elastic+Network+Adapter+%28ENA%29&amp;p=0'"><path d=" M 386.4910,246.5500 L 386.4910,218.9500 L 491.3410,218.9500 L 491.3410,246.5500 L 386.4910,246.5500 z " style="fill: #ffffff; fill-opacity: 0.00; stroke: none;" id="ezcGraphPolygon_38"/><text id="ezcGraphTextBox_29_text" x="386.9910" text-length="48.2300px" y="230.5000" style="font-size: 13px; font-family: 'Arial'; fill: #2e3436; fill-opacity: 1.00; stroke: none;">Elastic</text><text id="ezcGraphTextBox_29_text" x="386.9910" text-length="103.3500px" y="244.8000" style="font-size: 13px; font-family: 'Arial'; fill: #2e3436; fill-opacity: 1.00; stroke: none;">Netwo... (3.0%)</text></g><g id="ezcGraphTextBox_33" style=" cursor: pointer;" onclick="top.location = 'https://linux-hardware.org/?view=computers&amp;f=net_ethernet_model&amp;v=Intel+82540EM+Gigabit+Ethernet+Controller&amp;p=0'"><path d=" M 260.5000,375.5000 L 260.5000,361.0000 L 427.3600,361.0000 L 427.3600,375.5000 L 260.5000,375.5000 z " style="fill: #ffffff; fill-opacity: 0.00; stroke: none;" id="ezcGraphPolygon_39"/><text id="ezcGraphTextBox_33_text" x="261.0000" text-length="165.3600px" y="372.5500" style="font-size: 13px; font-family: 'Arial'; fill: #2e3436; fill-opacity: 1.00; stroke: none;">82540EM Gigab... (48.5%)</text></g></g></svg>
